<?xml version="1.0" encoding="UTF-8"?>
<svg id="_图层_2" xmlns="http://www.w3.org/2000/svg" version="1.1" viewBox="0 0 388.2 150.6">
  <!-- Generator: Adobe Illustrator 29.8.1, SVG Export Plug-In . SVG Version: 2.1.1 Build 2)  -->
  <defs>
    <style>
      .st0 {
        fill: #fff;
      }
    </style>
  </defs>
  <path class="st0" d="M79.7,144.9l-5.1-2.9,4.2-7.4,5.1,2.9c1.8,1,2.4,3.3,1.4,5.1l-.5.9c-1,1.8-3.3,2.4-5.1,1.4h0ZM114.5,135.5h-5.9v-8.5h5.9c2,0,3.7,1.7,3.7,3.7v1.1c0,2-1.7,3.7-3.7,3.7h0ZM105.2,145.3v-26c0-2.1.8-4,2.3-5.5.7-.7,1.6-1.2,2.4-1.7,1.7-.9,2.5-1.2,4.1-1.9-1.4-2.8-2.3-4.5-3.6-7.1-3.3.5-6.3,2.1-8.8,4.6-3.2,3.2-4.8,7-4.8,11.6v26c0,2,1.7,3.7,3.7,3.7h1.1c2,0,3.7-1.7,3.7-3.7h0ZM139.9,110l-5.1,2.9-4.2-7.4,5.1-2.9c1.8-1,4-.4,5.1,1.4l.5.9c1,1.8.4,4-1.4,5.1h0ZM136.8,123.1l-13-22.5c-1.1-1.8-1.3-3.8-.8-5.9.3-1,.8-1.8,1.2-2.6,1-1.7,1.6-2.3,2.6-3.7-2.6-1.7-4.2-2.7-6.7-4.3-2.6,2.1-4.4,4.9-5.3,8.4-1.2,4.4-.6,8.5,1.6,12.4l13,22.5c1,1.8,3.3,2.4,5.1,1.4.3-.2.6-.4.9-.5,1.8-1,2.4-3.3,1.4-5.1h0ZM149.2,75.2l-2.9,5.1-7.4-4.2,2.9-5.1c1-1.8,3.3-2.4,5.1-1.4l.9.5c1.8,1,2.4,3.3,1.4,5.1h0ZM153,88.1c1.8,1,2.4,3.3,1.4,5.1-.2.3-.4.6-.5.9-1,1.8-3.3,2.4-5.1,1.4l-22.5-13c-3.9-2.3-6.5-5.6-7.6-9.9-.9-3.4-.8-6.8.5-9.9,2.9.1,4.8.2,7.9.4-.2,1.7-.4,2.5-.4,4.5,0,.9,0,1.9.2,2.9.6,2.1,1.8,3.7,3.6,4.8l22.5,13h0ZM139.8,40.4v5.9h-8.5v-5.9c0-2,1.7-3.7,3.7-3.7h1.1c2,0,3.7,1.7,3.7,3.7h0ZM149.5,49.6h-26c-2.1,0-4-.8-5.5-2.3-.7-.7-1.2-1.6-1.7-2.4-.9-1.7-1.2-2.5-1.9-4.1-2.8,1.4-4.5,2.3-7.1,3.6.5,3.3,2.1,6.3,4.6,8.8,3.2,3.2,7,4.8,11.6,4.8h26c2,0,3.7-1.7,3.7-3.7v-1.1c0-2-1.7-3.7-3.7-3.7h0ZM114.2,15l2.9,5.1-7.4,4.2-2.9-5.1c-1-1.8-.4-4,1.4-5.1l.9-.5c1.8-1,4-.4,5.1,1.4h0ZM127.3,18.1l-22.5,13c-1.8,1.1-3.8,1.3-5.9.8-1-.3-1.8-.8-2.6-1.2-1.7-1-2.3-1.6-3.7-2.6-1.7,2.6-2.7,4.2-4.3,6.7,2.1,2.6,4.9,4.4,8.4,5.3,4.4,1.2,8.5.6,12.4-1.6l22.5-13c1.8-1,2.4-3.3,1.4-5.1-.2-.3-.4-.6-.5-.9-1-1.8-3.3-2.4-5.1-1.4h0ZM79.4,5.7l5.1,2.9-4.2,7.4-5.1-2.9c-1.8-1-2.4-3.3-1.4-5.1l.5-.9c1-1.8,3.3-2.4,5.1-1.4h0ZM92.3,1.9c1-1.8,3.3-2.4,5.1-1.4.3.2.6.4.9.5,1.8,1,2.4,3.3,1.4,5.1l-13,22.5c-2.3,3.9-5.6,6.5-9.9,7.6-3.4.9-6.8.8-9.9-.5.1-2.9.2-4.8.4-7.9,1.7.2,2.5.4,4.5.4.9,0,1.9,0,2.9-.2,2.1-.6,3.7-1.8,4.8-3.6L92.3,1.9h0ZM44.6,15.1h5.9v8.5h-5.9c-2,0-3.7-1.7-3.7-3.7v-1.1c0-2,1.7-3.7,3.7-3.7h0ZM53.9,5.3v26c0,2.1-.8,4-2.3,5.5-.7.7-1.6,1.2-2.4,1.7-1.7.9-2.5,1.2-4.1,1.9,1.4,2.8,2.3,4.5,3.6,7.1,3.3-.5,6.3-2.1,8.8-4.6,3.2-3.2,4.8-7,4.8-11.6V5.3c0-2-1.7-3.7-3.7-3.7h-1.1c-2,0-3.7,1.7-3.7,3.7h0ZM19.2,40.6l5.1-2.9,4.2,7.4-5.1,2.9c-1.8,1-4,.4-5.1-1.4l-.5-.9c-1-1.8-.4-4,1.4-5.1h0ZM22.3,27.5l13,22.5c1.1,1.8,1.3,3.8.8,5.9-.3,1-.8,1.8-1.2,2.6-1,1.7-1.6,2.3-2.6,3.7,2.6,1.7,4.2,2.7,6.7,4.3,2.6-2.1,4.4-4.9,5.3-8.4,1.2-4.4.6-8.5-1.6-12.4l-13-22.5c-1-1.8-3.3-2.4-5.1-1.4-.3.2-.6.4-.9.5-1.8,1-2.4,3.3-1.4,5.1h0ZM9.9,75.4l2.9-5.1,7.4,4.2-2.9,5.1c-1,1.8-3.3,2.4-5.1,1.4l-.9-.5c-1.8-1-2.4-3.3-1.4-5.1h0ZM6.1,62.5c-1.8-1-2.4-3.3-1.4-5.1.2-.3.4-.6.5-.9,1-1.8,3.3-2.4,5.1-1.4l22.5,13c3.9,2.3,6.5,5.6,7.6,9.9.9,3.4.8,6.8-.5,9.9-2.9-.1-4.8-.2-7.9-.4.2-1.7.4-2.5.4-4.5,0-.9,0-1.9-.2-2.9-.6-2.1-1.8-3.7-3.6-4.8l-22.5-13h0ZM19.3,110.2v-5.9h8.5v5.9c0,2-1.7,3.7-3.7,3.7h-1.1c-2,0-3.7-1.7-3.7-3.7h0ZM9.5,101h26c2.1,0,4,.8,5.5,2.3.7.7,1.2,1.6,1.7,2.4.9,1.7,1.2,2.5,1.9,4.1,2.8-1.4,4.5-2.3,7.1-3.6-.5-3.3-2.1-6.3-4.6-8.8-3.2-3.2-7-4.8-11.6-4.8H9.5c-2,0-3.7,1.7-3.7,3.7v1.1c0,2,1.7,3.7,3.7,3.7h0ZM44.8,135.6l-2.9-5.1,7.4-4.2,2.9,5.1c1,1.8.4,4-1.4,5.1l-.9.5c-1.8,1-4,.4-5.1-1.4h0ZM31.8,132.5l22.5-13c1.8-1.1,3.8-1.3,5.9-.8,1,.3,1.8.8,2.6,1.2,1.7,1,2.3,1.6,3.7,2.6,1.7-2.6,2.7-4.2,4.3-6.7-2.1-2.6-4.9-4.4-8.4-5.3-4.4-1.2-8.5-.6-12.4,1.6l-22.5,13c-1.8,1-2.4,3.3-1.4,5.1.2.3.4.6.5.9,1,1.8,3.3,2.4,5.1,1.4h0ZM66.8,148.7l13-22.5c1.1-1.8,2.7-3.1,4.8-3.6,1-.3,1.9-.3,2.9-.2,1.9,0,2.8.2,4.5.4.1-3.1.2-5,.4-7.9-3.2-1.2-6.5-1.4-9.9-.5-4.4,1.2-7.7,3.7-9.9,7.6l-13,22.5c-1,1.8-.4,4,1.4,5.1.3.2.6.4.9.5,1.8,1,4,.4,5.1-1.4Z"/>
  <path class="st0" d="M273.7,41.6c.2.3.3.5.3.8,0,.3,0,.6,0,.9,0,.4-.2.8-.3,1.1h0c-.2.3-.4.6-.7.9-.3.3-.6.4-1,.6-.4.1-.7.1-1.1,0h0c-.2,0-.5,0-.7-.2-.2,0-.4-.2-.6-.3h0c-.4-.3-.7-.6-.9-.9h0s-1-1.7-1-1.7l-18,1.3c-.3,0-.7,0-1,0-.3,0-.6-.2-.9-.4h0c-.3-.2-.5-.4-.7-.6-.2-.3-.4-.5-.5-.8h0c0-.2-.1-.4-.1-.6h0c0-.2,0-.4,0-.6,0-.9.3-1.6.9-2.1.3-.3.7-.7,1-1.1h0c.3-.4.7-.8,1.1-1.2.4-.4.7-.9,1.1-1.4.4-.5.7-.9,1-1.4.3-.5.7-1,1-1.5.3-.5.7-1,1-1.6.3-.5.6-1,.9-1.6h0c.3-.5.6-1,.8-1.5.1-.2.3-.5.4-.7.2-.2.4-.4.6-.5.2-.1.5-.3.7-.3.3,0,.5-.1.8-.1s.8,0,1.1.2c.3.1.7.4.9.6h0c.3.3.5.6.6.9.1.3.2.7.2,1.1s0,.5,0,.7c0,.2-.1.4-.3.6-.3.7-.7,1.4-1.1,2.1-.4.7-.8,1.4-1.2,2.1h0c-.4.7-.9,1.4-1.4,2.1-.3.4-.6.8-.9,1.2l8.4-.6-1-1.6h0c-.2-.3-.3-.5-.3-.8,0-.3,0-.6,0-.9,0-.4.1-.8.3-1.1h0c.2-.3.4-.6.6-.9h0c.3-.3.6-.4.9-.5.3-.1.7-.1,1.1,0h0c.2,0,.5,0,.7.2.2,0,.4.2.6.3h0c.2.1.4.3.5.4.2.2.3.3.4.5h0s5.4,8.9,5.4,8.9h0ZM214.8,67.6c0-.4,0-.9.1-1.2h0c.1-.4.4-.8.7-1.1.3-.3.7-.6,1-.7.4-.2.8-.2,1.2-.2.8,0,1.5.3,2,.8h0c.3.3.5.6.6.9h0c.2.3.3.7.3,1.1h0c.2,4.4-.5,7.6-2,9.8-.8,1.1-1.7,2-2.7,2.5-1,.6-2.2.9-3.4.9-1.2,0-2.4-.2-3.4-.6-1.1-.4-2-1.1-2.9-2.1h0c-.9-.9-1.7-2.2-2.4-3.7-.7-1.5-1.4-3.4-1.9-5.6h0c-.3-1.2-.6-2.4-.9-3.7-.3-1.2-.5-2.5-.8-3.7-.2-1.3-.4-2.6-.6-3.8-.2-1.3-.4-2.6-.5-4-.2-1.4-.3-2.7-.4-4.2-.1-1.4-.2-2.9-.2-4.4,0-1.5,0-3.1-.1-4.7,0-1.5,0-3,0-4.6h-22.2c-.4,0-.8,0-1.2-.2-.4-.2-.7-.4-1-.7h0c-.3-.3-.5-.6-.7-1-.2-.4-.2-.8-.2-1.2s0-.8.2-1.2h0c.2-.4.4-.7.7-1h0c.3-.3.6-.5,1-.6.4-.1.8-.2,1.2-.2h25.6c.4,0,.8.2,1.1.3.3.2.6.4.9.7.3.3.5.6.6,1,.1.4.2.7.2,1.1h0c0,1.3,0,2.5,0,3.6,0,1.2,0,2.3,0,3.4,0,1.1,0,2.1,0,3.2,0,.7,0,1.4,0,2.1.7-.7,1.4-1.3,2.1-2,.9-.9,1.7-1.7,2.4-2.6.7-.8,1.5-1.7,2.2-2.7.7-.9,1.5-1.9,2.2-3h0c0-.1.2-.3.4-.4.1-.1.3-.2.5-.4.2-.1.4-.2.6-.3h0c.2,0,.4-.1.6-.1.4,0,.8,0,1.2.1h0c.4.1.7.3,1,.6.3.3.6.6.7.9.2.3.3.7.3,1.2,0,.4,0,.8-.1,1.2-.1.4-.3.7-.6,1-.7.9-1.3,1.8-2,2.7-.7.9-1.4,1.8-2.2,2.7-.7.9-1.5,1.7-2.3,2.6-.7.7-1.4,1.4-2,2l10.5,9.5h0s0,0,0,0c.2.3.4.6.5,1h0c.1.4.1.7.1,1.1h0c0,.4-.2.8-.3,1.2-.2.3-.4.7-.7.9-.3.3-.7.4-1,.6h0c-.4.1-.8.1-1.2,0h0c-.5,0-.9-.2-1.2-.4-.4-.2-.7-.4-.9-.8l-10.3-9.3c.1,1.2.3,2.3.4,3.5.2,1.3.4,2.6.6,3.8.2,1.2.5,2.4.8,3.7.3,1.2.6,2.4.9,3.7h0c.2.8.5,1.6.7,2.3.2.7.4,1.2.7,1.7.2.5.4.9.6,1.3.2.4.4.7.6.9.2.2.4.4.6.6.2.1.4.2.5.3.2,0,.4.1.7.1.2,0,.5,0,.7,0s.6-.1.8-.3c.2-.2.4-.6.5-1.1.1-.6.3-1.2.3-2.1,0-.8.2-1.8.2-2.9h0ZM288.5,79.7c-.1,0-.3,0-.4,0-.1,0-.2,0-.3,0-.4,0-.7-.1-1-.2-.3-.1-.6-.3-.9-.6h0c-.3-.3-.5-.6-.6-.9-.1-.3-.2-.7-.2-1V31.2c0-.3,0-.6.1-.9h0c0-.3.2-.6.4-.8h0c.2-.2.4-.4.7-.6.2-.2.5-.3.8-.4.1,0,.2,0,.3-.1h0c.1,0,.2,0,.3,0,0,0,.2,0,.3,0,.1,0,.2,0,.3,0h37.3c.8,0,1.4.3,2,.8.3.3.5.6.6.9.1.3.2.7.2,1.1s0,.8-.2,1.1-.4.7-.6.9c-.6.6-1.2.9-2,.9h-34.7v39.8h35.9c.8,0,1.4.3,2,.8.3.3.5.6.6.9.1.3.2.7.2,1.1s0,.8-.2,1.1-.4.7-.6.9c-.3.3-.6.5-.9.6-.3.1-.7.2-1.1.2h-38.5ZM297,72.3h0c1.5-.7,2.9-1.5,4.2-2.3,1.3-.8,2.4-1.6,3.4-2.5,1-.9,1.9-1.8,2.7-2.8.7-.8,1.4-1.7,1.9-2.6l14,10.9h0s0,0,0,0c.3.1.6.2.9.3.3,0,.6,0,.9,0h0c.4,0,.8-.2,1.1-.4.3-.2.6-.5.9-.8h0c.2-.3.4-.7.5-1.1,0-.4.1-.8,0-1.2h0s0,0,0,0c-.1-.5-.3-1-.6-1.4-.3-.4-.6-.7-1.1-.9l-14.4-10.6v-.4h13.1c.4,0,.8,0,1.1-.2.3-.1.7-.4.9-.6.6-.6.9-1.3.9-2.1s0-.8-.2-1.1c-.1-.3-.4-.7-.6-.9-.3-.3-.6-.5-.9-.6-.3-.1-.7-.2-1.1-.2h-11.6c.2-1,.3-2,.3-3.1v-1.9c.1,0,.2-1.5.2-1.5h8.4c.4,0,.8,0,1.1-.2.3-.1.7-.4.9-.7.3-.3.5-.6.6-.9.1-.3.2-.7.2-1.1s0-.8-.2-1.1c-.1-.4-.4-.7-.6-1-.3-.3-.6-.5-.9-.7-.4-.1-.7-.2-1.1-.2h-18l.2-.7h0c.1-.4.1-.8.1-1.1,0-.4-.2-.7-.4-1.1-.2-.3-.5-.6-.8-.9-.3-.2-.7-.4-1.1-.5h0c-.4,0-.8-.1-1.1,0-.4,0-.7.2-1,.4-.7.4-1.1.9-1.3,1.7h0c-.2.9-.5,1.7-.8,2.6-.3.8-.7,1.7-1.1,2.5-.4.8-.8,1.6-1.3,2.3-.5.7-1,1.3-1.5,1.9h0c-.2.2-.3.4-.4.7-.1.2-.2.5-.2.8,0,.4,0,.8,0,1.1,0,.4.2.7.5,1,.2.3.5.6.8.8.3.2.7.3,1,.4h0c.3,0,.5,0,.8,0,.3,0,.5,0,.7-.2.2,0,.4-.2.6-.3.2-.1.4-.3.6-.5h0s0,0,0,0c.2-.3.5-.7.8-1.2.3-.5.6-.9.8-1.2h0c.3-.4.6-.9.8-1.3h0c.2-.4.4-.8.7-1.2h6.2c0,.5,0,1,0,1.5,0,.6,0,1.2-.1,1.9,0,.6-.1,1.2-.2,1.8,0,.5-.1.9-.2,1.3h-11.3c-.4,0-.8,0-1.1.2-.4.1-.7.4-.9.6-.3.3-.5.6-.6.9-.1.3-.2.7-.2,1.1s0,.8.2,1.1c.1.3.4.7.6.9.3.3.6.5.9.6s.7.2,1.1.2h9.6c-.4.9-.9,1.8-1.5,2.6-.7,1-1.5,2-2.3,2.9-.9.9-1.9,1.8-3.1,2.6-1.2.8-2.6,1.6-4.1,2.3h0c-.2.1-.4.3-.6.4s-.3.3-.5.5c-.1.2-.3.4-.4.6,0,.2-.2.5-.2.7h0c0,.4,0,.8,0,1.2,0,.4.2.7.5,1.1.2.3.5.6.9.8.3.2.7.3,1.1.4.3,0,.6,0,.9,0,.3,0,.6-.1.9-.3h0ZM359.6,29.6c0-.1,0-.2-.1-.3h0c0,0,0-.2,0-.3h0c0-.1,0-.2,0-.3,0-.1,0-.2,0-.3,0-.4,0-.8.2-1.2.1-.4.4-.7.7-1,.6-.6,1.3-.9,2.2-.9s1.2.2,1.7.5c.2.2.5.3.6.5.2.2.3.4.4.7h0l2,4.3h0s0,0,0,0v.4h13.8c.4,0,.8,0,1.1.2.3.1.7.4.9.7.3.3.5.6.6,1h0c.1.4.2.7.2,1.1s0,.8-.2,1.1c-.1.4-.4.7-.6.9-.3.3-.6.5-.9.6-.3.1-.7.2-1.1.2h-29.6c0,2.7,0,5.2-.2,7.5,0,2.5-.2,4.8-.4,6.9-.3,4.3-.7,8-1.3,11.3-.5,3.3-1.2,6.1-2.1,8.7-.4,1.3-.9,2.5-1.3,3.6-.5,1.2-1,2.3-1.5,3.4h0c-.2.3-.3.5-.5.8h0c-.2.2-.4.4-.7.6-.3.2-.6.3-.8.3-.3,0-.6,0-.9,0-.4,0-.8-.2-1.1-.3h0c-.4-.2-.7-.4-.9-.7-.3-.3-.5-.7-.6-1-.1-.4-.2-.8-.1-1.2h0s0,0,0,0c0-.2,0-.4.1-.5,0,0,0-.2,0-.3,0,0,0-.2.1-.3h0c.3-.6.6-1.1.8-1.7.3-.6.5-1.1.7-1.7.2-.6.5-1.2.7-1.8.2-.6.4-1.3.6-1.9.2-.7.4-1.4.6-2.1.2-.7.4-1.5.5-2.2.2-.8.3-1.6.5-2.4,0-.5.2-.9.2-1.4l-1.8,1.6h0s0,0,0,0c-.2.1-.3.2-.5.3h0c-.2,0-.3.2-.5.2h0c-.4.1-.7.2-1.1.2-.4,0-.7-.1-1-.3s-.6-.4-.8-.7c-.2-.3-.4-.6-.5-1h0c-.4-1.1-.1-2,.7-2.8h0s5.3-4.8,5.3-4.8h0s0,0,0,0c.1,0,.2-.2.4-.3,0,0,.2-.1.3-.2h0c0,0,.2,0,.3-.1h0c0-1.2.2-2.4.2-3.7v-1c0,.1,0,.3-.1.4-.2.3-.4.6-.7.8-.3.2-.6.4-1,.5h0c-.3,0-.7.1-1.1,0h0c-.3,0-.5-.1-.8-.2h0c-.2-.1-.5-.3-.6-.4-.2-.2-.4-.4-.5-.6h0c-.1-.2-.3-.4-.3-.7h0s-2-6.9-2-6.9c0,0,0-.2-.1-.3h0c0-.1,0-.2,0-.3v-.5h0s0,0,0,0c0-.4.2-.7.3-1.1h0c.2-.3.4-.6.7-.8.3-.2.6-.4,1-.5.3,0,.7-.1,1.1,0h0c.3,0,.5.1.8.2.2.1.5.2.7.4.2.2.4.4.5.6h0c.1.2.3.5.3.7h0s2,6.9,2,6.9h0s0,0,0,0v.2c0-.6,0-1.1.1-1.7,0-1.5.1-3.1.1-4.8,0-1.6,0-3.4,0-5.3v-.2h0c0-.9.3-1.6.9-2.2s.6-.5.9-.6c.3-.1.7-.2,1.1-.2h12.3l-1-2.1h0ZM361,80.4c1.6,0,3.1-.2,4.4-.7,1.3-.5,2.4-1.2,3.3-2.2.9-1,1.6-2.1,2-3.5.4-1.3.7-2.8.7-4.4v-11.2l10.1-11.2h0s0,0,0,0c0-.2.2-.3.2-.5,0-.2.1-.3.1-.5,0-.2,0-.4,0-.6,0-.2,0-.4,0-.6h0c0-.4-.2-.7-.4-1-.2-.3-.4-.6-.7-.8-.3-.2-.6-.4-.9-.5h0c-.3-.1-.7-.2-1.1-.2h-23.4c-.9,0-1.6.3-2.2.9-.3.3-.5.6-.7,1-.1.4-.2.8-.2,1.2s0,.8.2,1.1c.1.4.4.7.7,1,.3.3.6.5,1,.7.4.1.8.2,1.2.2h16.7l-6.2,6.8h0s0,0,0,0c-.1.2-.2.4-.3.7,0,.2-.1.5-.1.8v12.7c0,.7,0,1.4-.2,2-.2.6-.4,1.1-.7,1.6-.3.5-.7.8-1.3,1h0c-.6.2-1.4.4-2.3.4s-.8,0-1.1.2-.7.4-.9.6-.5.6-.6.9c-.1.3-.2.7-.2,1.1s0,.8.2,1.1c.1.3.4.7.6.9.6.5,1.3.8,2.1.8h0ZM241.7,29.2c.6,0,1.1.2,1.5.5.2.2.4.3.6.5.2.2.3.4.4.7h0c0,.2.2.4.2.6,0,.2,0,.4,0,.5v36.4c0,.5,0,1-.1,1.4,0,.5-.2.9-.4,1.3h0c-.2.4-.4.8-.7,1.2h0c-.3.4-.5.7-.9,1s-.7.6-1,.9c-.4.3-.8.5-1.2.7-.4.2-.9.3-1.3.4-.5,0-.9.1-1.4.1h-1.2c-.5,0-1,0-1.4-.1-.5,0-.9-.2-1.3-.4-.4-.2-.8-.4-1.2-.7-.4-.3-.7-.5-1-.9h0c-.6-.6-1.1-1.4-1.5-2.2h0c-.2-.4-.3-.9-.4-1.3,0-.5-.1-.9-.1-1.4v-36.4c0-.2,0-.4,0-.6h0c0-.2,0-.3.2-.5,0-.2,0-.3.2-.4.2-.4.5-.8.9-1,.4-.3.9-.4,1.5-.4h9.6ZM237.4,70.1c.5,0,.9-.1,1.2-.4h0c.2-.2.4-.6.4-1.2v-7.8h-4.2v7.8c0,1,.5,1.5,1.5,1.5h1.2ZM234.7,41.8h4.2v-7.1h-4.2v7.1h0ZM234.7,55.2h4.2v-7.9h-4.2v7.9h0ZM257.7,47.1v4h-3.5l.5-2.1h0c0-.4,0-.9,0-1.3,0-.4-.2-.8-.4-1.1-.2-.4-.5-.6-.9-.9-.3-.2-.7-.3-1.2-.4h0c-.4,0-.7,0-1.1,0-.3,0-.7.2-1,.4-.3.2-.5.5-.7.8-.2.3-.3.6-.5,1h0s0,0,0,0c0,.3-.1.7-.2,1.1,0,.4-.2.8-.3,1.2-.1.4-.3.9-.4,1.3-.1.5-.3.9-.5,1.4h0c-.2.5-.3.9-.5,1.4-.2.4-.3.9-.5,1.4-.2.5-.3.9-.5,1.3-.2.4-.3.7-.5,1.1h0c-.2.3-.3.6-.3,1,0,.3,0,.7,0,1.1h0c0,.4.3.8.5,1.1.2.3.5.6.9.8.4.2.7.3,1.1.3h0c.4,0,.8,0,1.1-.1.4,0,.8-.3,1.2-.5.3-.3.6-.6.8-1h0c.5-1,.9-2.2,1.4-3.5h5.3v6h-9.7c-.4,0-.8,0-1.2.2-.4.1-.7.4-1,.6-.3.3-.5.6-.7.9-.1.4-.2.7-.2,1.1s0,.8.2,1.1c.1.3.4.7.7.9.6.6,1.3.8,2.2.8h9.7v8.8c0,.4,0,.8.2,1.2.1.4.4.7.6,1,.3.3.6.5.9.7.4.1.7.2,1.1.2s.8,0,1.1-.2c.3-.1.7-.4.9-.7.3-.3.5-.6.6-1,.1-.4.2-.8.2-1.2v-8.8h8.8c.4,0,.8,0,1.2-.2.4-.1.7-.4,1-.6.3-.3.5-.6.7-.9.1-.4.2-.7.2-1.1s0-.8-.2-1.1c-.1-.3-.4-.7-.7-.9-.6-.6-1.3-.8-2.2-.8h-8.8v-6h6.9c.4,0,.8,0,1.2-.2h0c.4-.1.7-.4,1-.6h0c.3-.3.5-.6.7-.9.2-.4.2-.7.2-1.1s0-.8-.2-1.1c-.2-.3-.4-.7-.7-.9-.3-.3-.6-.5-1-.6-.4-.1-.8-.2-1.2-.2h-6.9v-4c0-.4,0-.8-.2-1.2-.1-.4-.4-.7-.6-1-.3-.3-.6-.5-.9-.7-.4-.1-.7-.2-1.1-.2s-.8,0-1.1.2c-.3.1-.7.4-.9.7-.3.3-.5.6-.6,1-.1.4-.2.8-.2,1.2Z"/>
  <path class="st0" d="M187.4,99.3v-4h-13.9v29.5h4.3v-12.8h8.9v-3.9h-8.9v-8.8h9.7ZM202.5,117.8c-.3,2.4-1.3,3.5-3.8,3.5s-3.5-1.4-3.5-4.4v-1.7h11.3v-4.9c0-5.3-3-8.3-7.8-8.3s-7.6,3-7.6,8.3v6.6c0,5.3,2.9,8.3,7.5,8.3s7.5-2.7,8-7.4h-4.1ZM198.8,105.8c2.4,0,3.7,1.3,3.7,4.4v1.9h-7.3v-1.9c0-3,1.3-4.4,3.6-4.4h0ZM232,102c-2.6,0-4.5,1.2-5.6,3.4-1.1-2.3-2.8-3.4-5.2-3.4s-4.2,1.1-5.3,3l-.4-2.5h-2.9v22.2h4v-13.7c0-3.3,1.5-5.1,3.7-5.1s3,1.4,3,5.1v13.8h4v-13.7c0-3.3,1.5-5.1,3.7-5.1s3,1.4,3,5.1v13.8h4v-13.9c0-5.9-2.3-8.9-6.1-8.9h0ZM253.1,121.2c-2.2,0-3.2-1.1-3.2-3.5v-11.4h4.1v-3.7h-4.1v-5.3h-4v5.3h-3.1v3.7h3.1v11.3c0,4.6,2.6,7.4,7,7.4h1.6v-3.8h-1.3ZM267.1,125.3c4.8,0,7.8-3,7.8-8.4v-6.4c0-5.4-3-8.4-7.8-8.4s-7.8,3-7.8,8.4v6.4c0,5.4,3,8.4,7.8,8.4h0ZM267.1,121.3c-2.3,0-3.7-1.3-3.7-4.5v-6.4c0-3.1,1.4-4.5,3.7-4.5s3.7,1.3,3.7,4.5v6.4c0,3.1-1.4,4.5-3.7,4.5h0ZM300.4,95.3l-5,12c-.7,1.7-1.7,4.5-2.2,5.9h-.2c-.5-1.3-1.5-4.2-2.2-5.9l-5-12h-4.3v29.5h4.2v-11.5c0-3.4-.2-6.5-.3-9.5h.2c.8,2.3,1.9,5,2.9,7.7l2.6,6.7h4.2l2.6-6.7c1-2.7,2-5.4,2.9-7.8h.2c-.2,3.2-.3,6.2-.3,9.6v11.5h4.2v-29.5h-4.3ZM319,102c-4.5,0-7.3,2.6-7.5,6.9h4.1c.2-2,1.6-3,3.4-3s3.2,1.5,3.2,4.1v1.6h-3.2c-4.9,0-8.1,2.3-8.1,6.8s2.7,6.9,6.8,6.9,4-1.1,4.9-2.7l.3,2.1h3.3v-14.8c0-5.1-2.4-8-7.2-8h0ZM322.1,117.9c0,2.3-1.4,3.8-3.6,3.8s-3.5-1.2-3.5-3.2,1.4-3.4,3.9-3.4h3.2v2.9h0ZM341.9,102.1c-2.6,0-4.5,1.2-5.7,3.2l-.5-2.7h-2.9v22.2h4.1v-13.3c0-3.6,1.8-5.5,4.6-5.5s1.9.2,2.7.5v-4c-.6-.3-1.4-.3-2.3-.3h0ZM355.8,125.2c4.7,0,7.7-3,7.8-8.1h-4.1c-.1,2.8-1.4,4.2-3.7,4.2s-3.4-1.4-3.4-4.2v-7c0-2.8,1.3-4.2,3.4-4.2s3.5,1.3,3.6,4.2h4.1c-.1-5.1-2.9-8.1-7.8-8.1s-7.5,3-7.5,8.1v7c0,5.2,2.9,8.1,7.5,8.1h0ZM377.8,102c-2.1,0-3.8,1.1-4.9,2.7v-10.4h-4.1v30.4h4.1v-13.7c0-3.3,1.5-5.1,3.8-5.1s3.1,1.5,3.1,5.5v13.4h4.1v-13.5c0-6.3-2.2-9.2-6.1-9.2Z"/>
</svg>