<?xml version="1.0" encoding="UTF-8"?>
<svg id="_图层_2" data-name="图层 2" xmlns="http://www.w3.org/2000/svg" viewBox="0 0 388.21 189.2">
  <defs>
    <style>
      .cls-1 {
        fill: #fff;
        fill-rule: evenodd;
      }
    </style>
  </defs>
  <g id="_图层_2-2" data-name=" 图层 2">
    <g>
      <path class="cls-1" d="M94.75,182.05l-6.37-3.68,5.33-9.24,6.37,3.68c2.22,1.28,2.99,4.14,1.71,6.37l-.67,1.17c-1.28,2.22-4.14,2.99-6.37,1.71h0ZM138.46,170.26h-7.36v-10.67h7.36c2.57,0,4.66,2.09,4.66,4.66v1.35c0,2.57-2.09,4.66-4.66,4.66h0ZM126.82,182.54v-32.68c0-2.68.97-4.99,2.9-6.93.91-.91,1.96-1.51,3-2.09,2.12-1.19,3.16-1.5,5.1-2.36-1.78-3.46-2.9-5.62-4.56-8.86-4.2.67-7.89,2.58-11.07,5.74-4.02,4-6.04,8.83-6.04,14.52v32.65c0,2.57,2.09,4.66,4.66,4.66.45,0,.9,0,1.35,0,2.57,0,4.66-2.09,4.66-4.66h0ZM170.41,138.19l-6.37,3.68-5.33-9.24,6.37-3.68c2.22-1.28,5.08-.52,6.37,1.71l.67,1.17c1.28,2.22.52,5.08-1.71,6.37h0ZM166.48,154.64l-16.34-28.3c-1.34-2.32-1.66-4.81-.95-7.45.33-1.24.94-2.28,1.55-3.31,1.24-2.09,1.98-2.88,3.24-4.59-3.27-2.1-5.32-3.42-8.38-5.39-3.31,2.68-5.55,6.18-6.72,10.5-1.48,5.47-.81,10.66,2.03,15.59l16.33,28.28c1.28,2.22,4.14,2.99,6.37,1.71.39-.22.78-.45,1.17-.67,2.22-1.28,2.99-4.14,1.71-6.37h0ZM182.05,94.44l-3.68,6.37-9.24-5.33,3.68-6.37c1.28-2.22,4.14-2.99,6.37-1.71l1.17.67c2.22,1.28,2.99,4.14,1.71,6.37h0ZM186.87,110.66c2.22,1.28,2.99,4.14,1.71,6.37-.22.39-.45.78-.67,1.17-1.28,2.22-4.14,2.99-6.37,1.71l-28.28-16.33c-4.93-2.85-8.11-7.01-9.56-12.49-1.15-4.33-.96-8.48.57-12.46,3.63.18,6.07.29,9.95.48-.23,2.11-.48,3.16-.51,5.59-.02,1.19-.02,2.4.31,3.64.71,2.64,2.22,4.63,4.55,5.98l28.3,16.34h0ZM170.26,50.74v7.36h-10.67v-7.36c0-2.57,2.09-4.66,4.66-4.66h1.35c2.57,0,4.66,2.09,4.66,4.66h0ZM182.54,62.37h-32.68c-2.68,0-4.99-.97-6.93-2.9-.91-.91-1.51-1.96-2.09-3-1.19-2.12-1.5-3.16-2.36-5.1-3.46,1.78-5.62,2.89-8.86,4.56.67,4.2,2.58,7.89,5.74,11.07,4,4.02,8.83,6.04,14.52,6.04h32.65c2.57,0,4.66-2.09,4.66-4.66v-1.35c0-2.57-2.09-4.66-4.66-4.66h0ZM138.19,18.79l3.68,6.37-9.24,5.33-3.68-6.37c-1.28-2.22-.52-5.08,1.71-6.37l1.17-.67c2.22-1.28,5.08-.52,6.37,1.71h0ZM154.64,22.72l-28.3,16.34c-2.32,1.34-4.81,1.66-7.45.95-1.24-.33-2.28-.94-3.31-1.55-2.09-1.24-2.88-1.98-4.59-3.24-2.1,3.27-3.42,5.32-5.39,8.38,2.68,3.31,6.18,5.55,10.5,6.72,5.47,1.48,10.66.81,15.59-2.03l28.28-16.33c2.22-1.28,2.99-4.14,1.71-6.37-.22-.39-.45-.78-.67-1.17-1.28-2.22-4.14-2.99-6.37-1.71h0ZM94.44,7.15l6.37,3.68-5.33,9.24-6.37-3.68c-2.22-1.28-2.99-4.14-1.71-6.37l.67-1.17c1.28-2.22,4.14-2.99,6.37-1.71h0ZM110.66,2.33c1.28-2.22,4.14-2.99,6.37-1.71.39.22.78.45,1.17.67,2.22,1.28,2.99,4.14,1.71,6.37l-16.33,28.28c-2.85,4.93-7.01,8.11-12.49,9.56-4.33,1.15-8.48.96-12.45-.57.17-3.63.29-6.07.48-9.95,2.11.23,3.16.48,5.59.51,1.19.02,2.4.02,3.64-.31,2.64-.71,4.63-2.22,5.98-4.55L110.66,2.33h0ZM50.74,18.94h7.36v10.67h-7.36c-2.57,0-4.66-2.09-4.66-4.66v-1.35c0-2.57,2.09-4.66,4.66-4.66h0ZM62.37,6.66v32.68c0,2.68-.97,4.99-2.9,6.93-.91.91-1.96,1.51-3,2.09-2.12,1.19-3.16,1.5-5.1,2.36,1.78,3.46,2.9,5.62,4.56,8.86,4.2-.67,7.89-2.58,11.07-5.74,4.02-4,6.04-8.83,6.04-14.52V6.66c0-2.57-2.09-4.66-4.66-4.66h-1.35c-2.57,0-4.66,2.09-4.66,4.66h0ZM18.79,51.01l6.37-3.68,5.33,9.24-6.37,3.68c-2.22,1.28-5.08.52-6.37-1.71l-.67-1.17c-1.28-2.22-.52-5.08,1.71-6.37h0ZM22.72,34.55l16.34,28.3c1.34,2.32,1.66,4.81.95,7.45-.33,1.24-.94,2.28-1.55,3.31-1.24,2.09-1.98,2.88-3.24,4.59,3.27,2.1,5.32,3.42,8.38,5.39,3.31-2.68,5.54-6.18,6.72-10.5,1.48-5.47.81-10.66-2.03-15.59l-16.33-28.28c-1.28-2.22-4.14-2.99-6.37-1.71-.39.22-.78.45-1.17.67-2.22,1.28-2.99,4.14-1.71,6.37h0ZM7.15,94.75l3.68-6.37,9.24,5.33-3.68,6.37c-1.28,2.22-4.14,2.99-6.37,1.71l-1.17-.67c-2.22-1.28-2.99-4.14-1.71-6.37h0ZM2.33,78.54c-2.22-1.28-2.99-4.14-1.71-6.37.22-.39.45-.78.67-1.17,1.28-2.22,4.14-2.99,6.37-1.71l28.28,16.33c4.93,2.85,8.11,7.01,9.56,12.49,1.15,4.33.96,8.48-.57,12.45-3.63-.17-6.07-.29-9.95-.48.23-2.11.48-3.16.51-5.59.02-1.19.02-2.4-.31-3.64-.71-2.64-2.22-4.63-4.55-5.98L2.33,78.54h0ZM18.94,138.46v-7.36h10.67v7.36c0,2.57-2.09,4.66-4.66,4.66h-1.35c-2.57,0-4.66-2.09-4.66-4.66h0ZM6.66,126.82h32.68c2.68,0,4.99.97,6.93,2.9.91.91,1.51,1.96,2.09,3,1.19,2.12,1.5,3.16,2.36,5.1,3.46-1.78,5.62-2.89,8.86-4.56-.67-4.2-2.58-7.89-5.74-11.07-4-4.02-8.83-6.04-14.52-6.04H6.66c-2.57,0-4.66,2.09-4.66,4.66v1.35c0,2.57,2.09,4.66,4.66,4.66h0ZM51.01,170.41l-3.68-6.37,9.24-5.33,3.68,6.37c1.28,2.22.52,5.08-1.71,6.37l-1.17.67c-2.22,1.28-5.08.52-6.37-1.71h0ZM34.55,166.48l28.3-16.34c2.32-1.34,4.81-1.66,7.45-.95,1.24.33,2.28.94,3.31,1.55,2.09,1.24,2.88,1.98,4.59,3.24,2.1-3.27,3.42-5.32,5.39-8.38-2.68-3.31-6.18-5.55-10.5-6.72-5.47-1.48-10.66-.81-15.59,2.03l-28.28,16.33c-2.22,1.28-2.99,4.14-1.71,6.37.22.39.45.78.67,1.17,1.28,2.22,4.14,2.99,6.37,1.71h0ZM78.54,186.87l16.34-28.3c1.34-2.32,3.33-3.84,5.97-4.55,1.24-.33,2.45-.32,3.64-.31,2.43.03,3.49.28,5.59.51.19-3.88.3-6.32.48-9.95-3.97-1.52-8.12-1.71-12.45-.57-5.48,1.45-9.64,4.63-12.49,9.56l-16.33,28.28c-1.28,2.22-.52,5.08,1.71,6.37.39.22.78.45,1.17.67,2.22,1.28,5.08.52,6.37-1.71Z"/>
      <path class="cls-1" d="M246.5,55.46v-7.08h-24.95c-.98,0-1.82.34-2.5,1.03-.69.69-1.04,1.52-1.04,2.51v36.45h7.09v-16.45h21.4v-7.11h-21.4v-9.36h21.4ZM269.56,65.55c-2.16,0-4,.77-5.56,2.31-1.54,1.54-2.31,3.39-2.31,5.55v.22l12.4-6.66c-1.37-.95-2.89-1.42-4.54-1.42h0ZM269.56,88.37c-4.11,0-7.63-1.46-10.57-4.4-2.91-2.92-4.38-6.44-4.38-10.56s1.47-7.65,4.38-10.57c2.94-2.91,6.46-4.37,10.57-4.37,2.77,0,5.33.71,7.69,2.12,2.36,1.42,4.19,3.34,5.49,5.76.47.86.56,1.76.29,2.71-.29.92-.86,1.63-1.73,2.08l-16.22,8.69c1.33.95,2.83,1.43,4.49,1.43s3.28-.51,4.68-1.53c1.39-1.05,2.34-2.37,2.84-3.99l6.76,2.06c-.96,3.16-2.76,5.7-5.37,7.63-2.64,1.95-5.61,2.93-8.91,2.93h0ZM317.2,58.46c-2.88,0-5.38,1-7.52,2.99-2.12-1.99-4.61-2.99-7.5-2.99-1.3,0-2.62.26-3.96.75v-.75h-7.08v29.91h7.08v-18.86c0-1.1.39-2.03,1.17-2.79.76-.78,1.69-1.17,2.79-1.17s2.04.39,2.82,1.17c.76.76,1.14,1.68,1.14,2.79v18.86h7.11v-18.86c0-1.1.38-2.03,1.14-2.79.78-.78,1.72-1.17,2.82-1.17s2.01.39,2.79,1.17c.78.76,1.17,1.68,1.17,2.79v18.86h7.08v-18.86c0-3.05-1.07-5.65-3.23-7.81-2.15-2.15-4.76-3.23-7.8-3.23h0ZM351.3,65.57v-7.08h-7.86v-10.11h-7.08v25.05c0,4.12,1.46,7.64,4.37,10.56,2.93,2.92,6.45,4.38,10.56,4.38v-7.08c-2.15,0-4-.76-5.55-2.28-1.54-1.55-2.31-3.41-2.31-5.57v-7.87h7.86ZM373.25,65.55c-2.16,0-4,.77-5.55,2.31-1.54,1.54-2.31,3.4-2.31,5.57s.77,4,2.31,5.55c1.55,1.54,3.4,2.31,5.55,2.31s4.02-.77,5.56-2.31c1.55-1.54,2.32-3.4,2.32-5.55s-.77-4.03-2.32-5.57c-1.54-1.54-3.4-2.31-5.56-2.31h0ZM373.25,88.37c-4.11,0-7.63-1.46-10.57-4.38-2.91-2.94-4.38-6.46-4.38-10.56s1.47-7.66,4.38-10.6c2.94-2.91,6.46-4.37,10.57-4.37s7.65,1.46,10.59,4.37c2.91,2.94,4.38,6.47,4.38,10.6s-1.47,7.62-4.38,10.56c-2.94,2.92-6.47,4.38-10.59,4.38h0ZM255.27,140.82h-3.15v-33.24l-14.15,20.98c-.29.45-.73.67-1.31.67s-1.01-.22-1.3-.67l-14.16-20.98v33.24h-3.18v-38.43c0-.8.37-1.31,1.12-1.53.76-.21,1.35,0,1.78.64l15.74,23.32,15.72-23.32c.45-.63,1.04-.85,1.78-.64.74.22,1.11.73,1.11,1.53v38.43h0ZM277.75,115.29c-3.08,0-5.73,1.1-7.91,3.29-2.18,2.2-3.26,4.82-3.26,7.89s1.08,5.73,3.26,7.91c2.19,2.2,4.83,3.29,7.91,3.29s5.72-1.09,7.89-3.29c2.2-2.19,3.29-4.83,3.29-7.91s-1.09-5.69-3.29-7.89c-2.17-2.19-4.8-3.29-7.89-3.29h0ZM292.08,140.82h-3.15v-5.36c-2.88,3.57-6.61,5.36-11.18,5.36-3.96,0-7.33-1.4-10.14-4.2-2.81-2.81-4.21-6.19-4.21-10.15s1.41-7.32,4.21-10.11c2.81-2.81,6.18-4.21,10.14-4.21s7.33,1.41,10.14,4.21c2.79,2.79,4.19,6.15,4.19,10.11v14.35h0ZM303.39,140.82h-3.18v-14.35c0-3.96,1.4-7.33,4.2-10.14,2.81-2.81,6.19-4.21,10.15-4.21,2.41,0,4.68.58,6.79,1.73l-1.5,2.79c-1.66-.89-3.42-1.34-5.29-1.34-3.09,0-5.73,1.1-7.91,3.29s-3.26,4.8-3.26,7.89v14.35h0ZM341.18,140.82c-3.96,0-7.33-1.4-10.14-4.2-2.81-2.81-4.21-6.19-4.21-10.15s1.41-7.33,4.21-10.14c2.81-2.81,6.18-4.21,10.14-4.21,4.77,0,8.6,1.94,11.48,5.83l-2.54,1.89c-2.24-3.02-5.22-4.55-8.94-4.55-3.08,0-5.73,1.1-7.91,3.29-2.18,2.18-3.26,4.8-3.26,7.89s1.08,5.73,3.26,7.91c2.19,2.18,4.83,3.26,7.91,3.26,3.72,0,6.7-1.51,8.94-4.55l2.54,1.9c-2.88,3.88-6.71,5.82-11.48,5.82h0ZM373.03,112.11c-3.96,0-7.26,1.55-9.89,4.66v-15.97h-3.18v40.02h3.18v-15.61c0-2.75.96-5.09,2.9-7.02,1.93-1.93,4.26-2.9,6.99-2.9s5.09.97,7.02,2.9,2.9,4.27,2.9,7.02v15.61h3.18v-15.61c0-3.62-1.28-6.71-3.85-9.25-2.54-2.57-5.62-3.85-9.25-3.85Z"/>
    </g>
  </g>
</svg>