<?xml version="1.0" encoding="UTF-8"?>
<svg id="_图层_2" data-name="图层 2" xmlns="http://www.w3.org/2000/svg" viewBox="0 0 388.21 150.6">
  <defs>
    <style>
      .cls-1 {
        fill: #fff;
        fill-rule: evenodd;
      }
    </style>
  </defs>
  <g id="_图层_2-2" data-name=" 图层 2">
    <g>
      <path class="cls-1" d="M75.42,144.91l-5.07-2.93,4.25-7.35,5.07,2.93c1.77,1.02,2.38,3.3,1.36,5.07l-.54.93c-1.02,1.77-3.3,2.38-5.07,1.36h0ZM110.21,135.52h-5.86v-8.49h5.86c2.04,0,3.71,1.67,3.71,3.71v1.07c0,2.04-1.67,3.71-3.71,3.71h0ZM100.95,145.3v-26.02c0-2.14.77-3.97,2.31-5.51.72-.72,1.56-1.2,2.39-1.66,1.69-.94,2.51-1.2,4.06-1.88-1.42-2.75-2.3-4.48-3.63-7.05-3.35.53-6.28,2.05-8.81,4.57-3.2,3.18-4.8,7.03-4.8,11.56v25.99c0,2.04,1.67,3.71,3.71,3.71h1.07c2.04,0,3.71-1.67,3.71-3.71h0ZM135.65,110l-5.07,2.93-4.25-7.35,5.07-2.93c1.77-1.02,4.05-.41,5.07,1.36l.54.93c1.02,1.77.41,4.05-1.36,5.07h0ZM132.52,123.1l-13.01-22.53c-1.07-1.85-1.32-3.83-.76-5.93.27-.99.75-1.82,1.24-2.63.99-1.66,1.58-2.29,2.58-3.65-2.6-1.68-4.23-2.72-6.67-4.29-2.63,2.13-4.41,4.92-5.35,8.36-1.18,4.36-.65,8.49,1.62,12.41l13,22.51c1.02,1.77,3.3,2.38,5.07,1.36.31-.18.62-.36.93-.54,1.77-1.02,2.38-3.3,1.36-5.07h0ZM144.91,75.18l-2.93,5.07-7.36-4.25,2.93-5.07c1.02-1.77,3.3-2.38,5.07-1.36l.93.54c1.77,1.02,2.38,3.3,1.36,5.07h0ZM148.75,88.08c1.77,1.02,2.38,3.3,1.36,5.07-.18.31-.36.62-.54.93-1.02,1.77-3.3,2.38-5.07,1.36l-22.51-13c-3.92-2.27-6.45-5.58-7.61-9.94-.91-3.45-.76-6.75.45-9.91,2.89.14,4.83.23,7.92.38-.18,1.68-.38,2.52-.4,4.45-.01.95-.02,1.91.25,2.9.56,2.1,1.77,3.69,3.62,4.76l22.53,13.01h0ZM135.52,40.39v5.86h-8.49v-5.86c0-2.04,1.67-3.71,3.71-3.71h1.07c2.04,0,3.71,1.67,3.71,3.71h0ZM145.3,49.65h-26.02c-2.14,0-3.97-.77-5.51-2.31-.72-.72-1.2-1.56-1.66-2.39-.94-1.69-1.2-2.51-1.88-4.06-2.75,1.42-4.48,2.3-7.05,3.63.53,3.35,2.05,6.28,4.57,8.81,3.18,3.2,7.03,4.8,11.56,4.8h25.99c2.04,0,3.71-1.67,3.71-3.71v-1.07c0-2.04-1.67-3.71-3.71-3.71h0ZM110,14.95l2.93,5.07-7.35,4.25-2.93-5.07c-1.02-1.77-.41-4.05,1.36-5.07l.93-.54c1.77-1.02,4.05-.41,5.07,1.36h0ZM123.1,18.09l-22.53,13.01c-1.85,1.07-3.83,1.32-5.93.76-.99-.27-1.82-.75-2.63-1.24-1.66-.99-2.29-1.58-3.65-2.58-1.68,2.6-2.72,4.23-4.29,6.67,2.13,2.63,4.92,4.41,8.36,5.35,4.36,1.18,8.49.65,12.41-1.62l22.51-13c1.77-1.02,2.38-3.3,1.36-5.07-.18-.31-.36-.62-.54-.93-1.02-1.77-3.3-2.38-5.07-1.36h0ZM75.18,5.69l5.07,2.93-4.25,7.36-5.07-2.93c-1.77-1.02-2.38-3.3-1.36-5.07l.54-.93c1.02-1.77,3.3-2.38,5.07-1.36h0ZM88.08,1.85c1.02-1.77,3.3-2.38,5.07-1.36.31.18.62.36.93.54,1.77,1.02,2.38,3.3,1.36,5.07l-13,22.51c-2.27,3.93-5.58,6.45-9.94,7.61-3.45.91-6.75.76-9.91-.45.14-2.89.23-4.83.38-7.92,1.68.18,2.52.38,4.45.4.95.01,1.91.02,2.9-.25,2.1-.56,3.69-1.77,4.76-3.62L88.08,1.85h0ZM40.39,15.08h5.86v8.49h-5.86c-2.04,0-3.71-1.67-3.71-3.71v-1.07c0-2.04,1.67-3.71,3.71-3.71h0ZM49.65,5.3v26.02c0,2.14-.77,3.97-2.31,5.51-.72.72-1.56,1.2-2.39,1.66-1.69.94-2.51,1.2-4.06,1.88,1.42,2.75,2.3,4.48,3.63,7.05,3.35-.53,6.28-2.05,8.81-4.57,3.2-3.18,4.8-7.03,4.8-11.56V5.3c0-2.04-1.67-3.71-3.71-3.71h-1.07c-2.04,0-3.71,1.67-3.71,3.71h0ZM14.95,40.6l5.07-2.93,4.25,7.35-5.07,2.93c-1.77,1.02-4.05.41-5.07-1.36l-.54-.93c-1.02-1.77-.41-4.05,1.36-5.07h0ZM18.09,27.51l13.01,22.53c1.07,1.85,1.32,3.83.76,5.93-.26.99-.75,1.82-1.24,2.63-.99,1.66-1.58,2.29-2.58,3.65,2.6,1.68,4.23,2.72,6.67,4.29,2.63-2.13,4.41-4.92,5.35-8.36,1.18-4.36.65-8.49-1.62-12.41l-13-22.51c-1.02-1.77-3.3-2.38-5.07-1.36-.31.18-.62.36-.93.54-1.77,1.02-2.38,3.3-1.36,5.07h0ZM5.69,75.42l2.93-5.07,7.35,4.25-2.93,5.07c-1.02,1.77-3.3,2.38-5.07,1.36l-.93-.54c-1.77-1.02-2.38-3.3-1.36-5.07h0ZM1.85,62.52c-1.77-1.02-2.38-3.3-1.36-5.07.18-.31.36-.62.54-.93,1.02-1.77,3.3-2.38,5.07-1.36l22.51,13c3.92,2.27,6.45,5.58,7.61,9.94.91,3.45.76,6.75-.45,9.91-2.89-.14-4.83-.23-7.92-.38.18-1.68.38-2.52.4-4.45.01-.95.02-1.91-.25-2.9-.56-2.1-1.77-3.69-3.62-4.76L1.85,62.52h0ZM15.08,110.21v-5.86h8.49v5.86c0,2.04-1.67,3.71-3.71,3.71h-1.07c-2.04,0-3.71-1.67-3.71-3.71h0ZM5.3,100.95h26.02c2.14,0,3.97.77,5.51,2.31.72.72,1.2,1.56,1.66,2.39.94,1.69,1.2,2.51,1.88,4.06,2.75-1.42,4.48-2.3,7.05-3.63-.53-3.35-2.05-6.28-4.57-8.81-3.18-3.2-7.03-4.8-11.56-4.8H5.3c-2.04,0-3.71,1.67-3.71,3.71v1.07c0,2.04,1.67,3.71,3.71,3.71h0ZM40.6,135.65l-2.93-5.07,7.35-4.25,2.93,5.07c1.02,1.77.41,4.05-1.36,5.07l-.93.54c-1.77,1.02-4.05.41-5.07-1.36h0ZM27.51,132.52l22.53-13.01c1.85-1.07,3.83-1.32,5.93-.76.99.27,1.82.75,2.63,1.24,1.66.99,2.29,1.58,3.65,2.58,1.68-2.6,2.72-4.23,4.29-6.67-2.13-2.63-4.92-4.41-8.36-5.35-4.36-1.18-8.49-.65-12.41,1.62l-22.51,13c-1.77,1.02-2.38,3.3-1.36,5.07.18.31.36.62.54.93,1.02,1.77,3.3,2.38,5.07,1.36h0ZM62.52,148.75l13.01-22.53c1.07-1.85,2.65-3.06,4.76-3.62.99-.27,1.95-.26,2.9-.25,1.93.03,2.78.22,4.45.4.15-3.09.24-5.03.38-7.92-3.16-1.21-6.47-1.36-9.91-.45-4.36,1.16-7.68,3.68-9.94,7.61l-13,22.51c-1.02,1.77-.41,4.05,1.36,5.07.31.18.62.36.93.54,1.77,1.02,4.05.41,5.07-1.36Z"/>
      <path class="cls-1" d="M188.66,100.08v-4.34h-15.28c-.6,0-1.11.21-1.53.63-.42.43-.64.93-.64,1.54v22.33h4.34v-10.07h13.11v-4.35h-13.11v-5.73h13.11ZM202.79,106.26c-1.32,0-2.45.47-3.4,1.42-.94.94-1.42,2.07-1.42,3.4v.13l7.6-4.08c-.84-.58-1.77-.87-2.78-.87h0ZM202.79,120.24c-2.52,0-4.67-.9-6.47-2.7-1.78-1.79-2.68-3.95-2.68-6.47s.9-4.69,2.68-6.47c1.8-1.78,3.96-2.68,6.47-2.68,1.7,0,3.26.44,4.71,1.3,1.45.87,2.57,2.05,3.36,3.53.29.52.34,1.08.17,1.66-.17.57-.52,1-1.06,1.28l-9.93,5.33c.82.58,1.74.87,2.75.87s2.01-.32,2.87-.94c.85-.64,1.43-1.45,1.74-2.44l4.14,1.26c-.59,1.93-1.69,3.49-3.29,4.67-1.61,1.19-3.44,1.79-5.46,1.79h0ZM231.97,101.92c-1.77,0-3.3.61-4.61,1.83-1.3-1.22-2.83-1.83-4.59-1.83-.8,0-1.6.16-2.42.46v-.46h-4.34v18.32h4.34v-11.55c0-.68.24-1.24.72-1.71.47-.48,1.04-.72,1.71-.72s1.25.24,1.72.72.7,1.03.7,1.71v11.55h4.35v-11.55c0-.68.23-1.24.7-1.71s1.05-.72,1.72-.72,1.23.24,1.71.72c.48.47.72,1.03.72,1.71v11.55h4.33v-11.55c0-1.87-.66-3.46-1.98-4.78s-2.91-1.98-4.78-1.98h0ZM252.86,106.27v-4.34h-4.81v-6.19h-4.34v15.35c0,2.52.89,4.68,2.68,6.47,1.79,1.79,3.95,2.68,6.47,2.68v-4.33c-1.32,0-2.45-.47-3.4-1.4-.94-.95-1.42-2.09-1.42-3.41v-4.82h4.81ZM266.31,106.26c-1.32,0-2.45.47-3.4,1.42-.94.94-1.42,2.08-1.42,3.41s.47,2.45,1.42,3.4c.95.94,2.08,1.42,3.4,1.42s2.46-.47,3.41-1.42c.95-.94,1.42-2.08,1.42-3.4s-.47-2.47-1.42-3.41c-.94-.94-2.08-1.42-3.41-1.42h0ZM266.31,120.24c-2.52,0-4.67-.89-6.47-2.68-1.78-1.8-2.68-3.96-2.68-6.47s.9-4.69,2.68-6.49c1.8-1.78,3.96-2.68,6.47-2.68s4.68.9,6.49,2.68c1.78,1.8,2.68,3.96,2.68,6.49s-.9,4.67-2.68,6.47c-1.8,1.79-3.96,2.68-6.49,2.68h0ZM305.18,120.24h-4.34v-15.74l-6.28,8.52c-.41.55-.99.83-1.74.83s-1.35-.28-1.75-.83l-6.28-8.52v15.74h-4.34v-22.35c0-.47.14-.89.41-1.26.27-.38.63-.65,1.07-.8.44-.15.9-.15,1.35,0,.44.15.8.41,1.07.79l8.47,11.47,8.45-11.47c.27-.37.64-.63,1.09-.79.44-.15.89-.15,1.33,0,.44.15.8.42,1.07.8.27.38.41.8.41,1.26v22.35h0ZM319.32,106.26c-1.32,0-2.45.47-3.4,1.42-.94.94-1.42,2.07-1.42,3.4s.47,2.47,1.42,3.41c.95.93,2.08,1.4,3.4,1.4s2.46-.47,3.41-1.4c.94-.94,1.4-2.09,1.4-3.41s-.47-2.45-1.4-3.4c-.94-.94-2.08-1.42-3.41-1.42h0ZM328.48,120.24h-4.35v-1.38c-1.47.92-3.08,1.38-4.81,1.38-2.52,0-4.67-.9-6.47-2.7-1.78-1.79-2.68-3.95-2.68-6.47s.9-4.69,2.68-6.47c1.8-1.78,3.96-2.68,6.47-2.68s4.68.9,6.47,2.68c1.79,1.79,2.7,3.94,2.7,6.47v9.17h0ZM337.8,120.24h-4.34v-9.15c0-2.53.89-4.68,2.68-6.47,1.78-1.78,3.94-2.68,6.47-2.68,1.55,0,3,.37,4.35,1.1l-2.06,3.8c-.71-.37-1.47-.57-2.29-.57-1.32,0-2.45.48-3.4,1.42-.94.93-1.42,2.06-1.42,3.4v9.15h0ZM359.47,120.24c-2.52,0-4.67-.89-6.47-2.68-1.78-1.8-2.68-3.96-2.68-6.47s.9-4.68,2.68-6.47c1.8-1.8,3.96-2.7,6.47-2.7,3.05,0,5.5,1.24,7.34,3.71l-3.48,2.59c-.98-1.29-2.27-1.95-3.86-1.95-1.32,0-2.45.47-3.4,1.4-.94.94-1.42,2.08-1.42,3.41s.47,2.45,1.42,3.4c.95.94,2.08,1.42,3.4,1.42,1.59,0,2.88-.65,3.86-1.96l3.48,2.59c-1.84,2.47-4.29,3.71-7.34,3.71h0ZM379.74,101.92c-1.41,0-2.79.38-4.13,1.13v-7.31h-4.34v24.5h4.34v-9.85c0-1.14.4-2.11,1.21-2.92.81-.8,1.78-1.2,2.92-1.2s2.11.4,2.92,1.2c.81.8,1.21,1.78,1.21,2.92v9.85h4.33v-9.85c0-2.34-.83-4.33-2.49-5.98-1.65-1.66-3.64-2.49-5.97-2.49Z"/>
      <path class="cls-1" d="M346.63,52.53c-.2.34-.48.64-.85.89-.67.45-1.43.63-2.28.54-.57-.09-1.09-.3-1.53-.65-.42-.34-.73-.76-.93-1.27l-2.14-6.67c-.1-.2-.16-.41-.16-.63,0-.17,0-.34,0-.56.1-.77.49-1.4,1.17-1.86.67-.45,1.44-.63,2.28-.54.56.09,1.08.28,1.53.6.46.33.77.76.92,1.26l2.1,6.54c.02-.42.04-.84.06-1.26.14-3.29.18-6.58.18-9.87v-.28c0-.8.31-1.5.93-2.07.62-.57,1.38-.85,2.26-.85h13.01l-1.01-1.98c-.09-.2-.16-.4-.21-.61-.05-.21-.07-.43-.07-.64,0-.83.31-1.56.96-2.15.64-.59,1.44-.88,2.35-.88.66,0,1.27.15,1.83.47.52.3.93.71,1.18,1.22l2.18,4.22.1.35h14.54c.89,0,1.65.3,2.26.88.61.58.92,1.28.92,2.09s-.31,1.5-.93,2.07c-.62.57-1.38.85-2.26.85h-31.42c-.04,4.66-.18,9.33-.55,13.98-.29,3.67-.7,7.35-1.36,10.98-.52,2.85-1.21,5.71-2.21,8.45-.85,2.35-1.87,4.65-3.08,6.87-.32.54-.76.99-1.33,1.31-.59.33-1.24.44-1.91.35-.89-.09-1.66-.42-2.27-1.03-.63-.62-.88-1.38-.78-2.26.04-.18.08-.35.13-.53.05-.19.13-.38.23-.56.61-1.09,1.17-2.2,1.67-3.34.53-1.2.99-2.44,1.4-3.68.45-1.38.83-2.78,1.16-4.19.27-1.17.51-2.35.72-3.53l-1.82,1.49c-.32.21-.67.38-1.05.51-.78.27-1.57.24-2.31-.11-.75-.36-1.23-.93-1.46-1.67-.39-1.07-.14-2.04.77-2.83l5.69-4.7.03-.02c.15-.09.29-.17.44-.26.2-.12.42-.21.64-.29h0c.11-1.39.2-2.77.28-4.16h0ZM303.72,38.29c.84.22,1.51.66,1.97,1.34.45.68.54,1.43.3,2.19l-.17.56h19.06c.89,0,1.65.3,2.26.88.61.58.92,1.28.92,2.09s-.33,1.47-.92,2.03c-.61.58-1.38.88-2.26.88h-8.92c-.07,1.07-.14,2.14-.22,3.21-.07.98-.18,1.95-.34,2.92h12.24c.87,0,1.64.28,2.26.85.62.57.93,1.27.93,2.07s-.31,1.5-.93,2.07c-.62.57-1.38.85-2.26.85h-13.72l-.11.29,15.28,10.3c.98.46,1.56,1.25,1.79,2.28.1.8-.12,1.54-.62,2.2-.53.69-1.27,1.09-2.17,1.22-.68.09-1.34,0-1.97-.27l-.06-.02-14.91-10.58c-1.35,1.96-3.03,3.7-4.93,5.23-2.4,1.92-5.22,3.45-8.09,4.69-.61.28-1.27.41-1.93.27-.87-.1-1.58-.48-2.09-1.13-.52-.66-.71-1.4-.56-2.2.09-.48.3-.93.63-1.31.31-.37.68-.67,1.15-.91,2.76-1.2,5.51-2.74,7.63-4.77,1.64-1.57,2.98-3.33,3.97-5.29h-10.08c-.87,0-1.64-.28-2.26-.85-.62-.57-.93-1.27-.93-2.07s.31-1.5.93-2.07c.62-.57,1.38-.85,2.26-.85h12c.2-.98.34-1.97.43-2.96.09-1.05.17-2.11.24-3.16h-6.45c-.51.82-1.03,1.63-1.59,2.42-.54.78-1.1,1.56-1.67,2.32l-.03.04-.04.03c-.37.34-.8.61-1.29.79-.53.19-1.09.23-1.64.14-.85-.13-1.53-.54-2.04-1.18-.51-.64-.71-1.36-.56-2.11.05-.56.28-1.04.7-1.47,1.23-1.21,2.22-2.6,3.02-4.08.84-1.56,1.51-3.2,1.97-4.92.25-.72.73-1.28,1.44-1.66.25-.13.51-.23.78-.3h-10.29v38.65h38.13c.84,0,1.58.28,2.19.81.63.55.94,1.25.94,2.04s-.31,1.5-.93,2.07c-.6.55-1.34.85-2.19.85h-40.94c-.22,0-.49,0-.71-.06-.79-.05-1.48-.33-2.04-.84-.57-.52-.86-1.16-.86-1.9v-44.48c0-.63.21-1.2.64-1.69.43-.49.98-.8,1.61-.97.22-.08.43-.14.66-.19.23-.05.46-.07.7-.07h39.71c.84,0,1.58.28,2.19.81.63.55.93,1.25.93,2.04s-.31,1.5-.93,2.07c-.6.55-1.34.85-2.19.85h-25.03ZM215.48,70.85c-.09-.88.22-1.66.89-2.3.67-.64,1.51-.97,2.48-.97.86,0,1.62.26,2.23.82.58.53.92,1.18,1.02,1.96.16,3.14-.12,6.94-2.16,9.6-1.59,2.08-3.74,3.34-6.55,3.42-2.69.08-4.98-.87-6.84-2.63-2.39-2.26-3.8-6.08-4.66-9.07-.69-2.4-1.3-4.81-1.8-7.25-.51-2.53-.92-5.08-1.24-7.64-.35-2.79-.56-5.6-.68-8.41-.13-3.01-.14-6.02-.07-9.03h-23.53c-.92,0-1.73-.31-2.38-.91-.65-.6-.99-1.33-.99-2.18s.33-1.56,1-2.14c.66-.56,1.46-.84,2.36-.84h27.27c.86.09,1.59.42,2.18,1,.59.59.87,1.31.82,2.09-.08,2.28-.13,4.56-.15,6.84-.02,1.66,0,3.33.05,4.99,1.64-1.37,3.22-2.81,4.68-4.33,1.67-1.75,3.22-3.59,4.67-5.47.24-.32.58-.57.94-.77.42-.23.87-.36,1.36-.4.91-.09,1.74.13,2.43.68.69.54,1.07,1.24,1.17,2.07.09.81-.13,1.56-.73,2.16-1.41,1.82-2.9,3.58-4.47,5.28-1.44,1.55-2.96,3.04-4.58,4.44l11.19,9.26.03.04c.49.63.7,1.34.65,2.14-.1.82-.48,1.52-1.18,2.05-.7.53-1.53.73-2.42.64-.93-.09-1.74-.43-2.31-1.11l-10.82-8.99c.26,2.31.62,4.62,1.09,6.91.5,2.4,1.08,4.79,1.78,7.15.38,1.3.83,2.65,1.42,3.87.34.71.77,1.51,1.31,2.12.3.33.69.67,1.15.8.47.13.96.18,1.45.18.84,0,1.17-.63,1.36-1.29.41-1.47.51-3.28.57-4.8h0ZM228.6,35.19c.02-.13.08-.24.17-.32.52-.97,1.44-1.45,2.64-1.45h10.22c.61,0,1.16.16,1.66.48.49.31.86.72,1.11,1.23.16.36.28.75.28,1.14v35.51c0,.94-.19,1.85-.6,2.71-.39.82-.93,1.55-1.62,2.18-.69.63-1.49,1.12-2.38,1.48-.94.38-1.93.55-2.96.55h-1.23c-1.02,0-2.02-.17-2.96-.55-.89-.36-1.69-.85-2.38-1.48-.69-.63-1.23-1.36-1.62-2.18-.41-.86-.6-1.77-.6-2.71v-35.51c0-.38.07-.75.25-1.09h0ZM265.01,54.73h7.28c.9,0,1.7.27,2.36.84.66.56,1,1.26,1,2.08s-.35,1.52-1,2.08c-.66.56-1.46.84-2.36.84h-7.28v5.73h9.25c.9,0,1.69.27,2.34.84.64.56.96,1.26.96,2.07s-.33,1.51-.96,2.07c-.65.57-1.45.84-2.34.84h-9.25v8.53c0,.82-.3,1.55-.92,2.14-.61.58-1.38.88-2.26.88s-1.65-.3-2.26-.88c-.62-.59-.92-1.32-.92-2.14v-8.53h-10.3c-.91,0-1.74-.26-2.4-.84-.64-.56-.96-1.26-.96-2.07s.33-1.51.96-2.07c.66-.58,1.49-.84,2.4-.84h10.3v-5.73h-5.49c-.44,1.13-.93,2.25-1.51,3.36-.48.8-1.22,1.3-2.18,1.48-.87.22-1.71.14-2.5-.24-.82-.39-1.34-1-1.54-1.84-.15-.71-.03-1.39.36-2.01.41-.75.76-1.51,1.08-2.29.37-.89.73-1.79,1.07-2.69.33-.88.64-1.76.91-2.65.23-.74.43-1.5.59-2.32.22-.7.63-1.3,1.27-1.75.66-.46,1.43-.59,2.22-.46.93.13,1.7.53,2.22,1.26.51.72.63,1.53.44,2.37l-.47,1.94h3.54v-3.79c0-.82.3-1.55.92-2.14.61-.58,1.38-.88,2.26-.88s1.65.3,2.26.88c.62.59.92,1.32.92,2.14v3.79h0ZM269.22,46.83l1,1.6c.27.4.62.7,1.03.95.45.27.94.43,1.48.47.84.09,1.62-.14,2.27-.65.66-.52,1.04-1.19,1.14-1.98.1-.6-.02-1.2-.39-1.73l-5.78-8.67c-.26-.38-.62-.69-1.02-.94-.45-.27-.94-.43-1.48-.48-.81-.09-1.58.12-2.2.63-.62.52-.94,1.19-1.03,1.94-.1.6.02,1.2.39,1.73l.97,1.5-8.73.55c.82-1.01,1.59-2.05,2.3-3.13.9-1.35,1.74-2.72,2.51-4.14.26-.38.37-.83.37-1.3,0-.8-.31-1.5-.93-2.07-.62-.57-1.38-.85-2.26-.85-.61,0-1.19.14-1.71.45-.5.3-.87.69-1.12,1.19-.58,1.02-1.2,2.03-1.85,3.03-.66,1.01-1.36,2-2.1,2.96-.71.93-1.46,1.83-2.25,2.7-.71.79-1.45,1.55-2.24,2.27-.69.54-1.03,1.25-1.03,2.1,0,.4.07.79.21,1.17.25.64.68,1.14,1.3,1.5.62.37,1.31.5,2.04.41l19.1-1.22h0ZM375.45,52.33l-6.49,6.59-.02.03c-.32.44-.46.93-.46,1.46v12.4c0,1.23-.28,2.44-1.02,3.48-.79,1.11-2.41,1.33-3.74,1.33-.87,0-1.64.28-2.26.85-.62.57-.93,1.27-.93,2.07s.31,1.49.93,2.04c.62.55,1.39.81,2.25.81,3.11,0,6.05-.77,8.18-2.92,2.11-2.13,2.88-4.83,2.88-7.66v-10.86l10.8-10.95.03-.05c.19-.31.33-.65.4-1,.08-.38.06-.77-.03-1.15-.14-.71-.49-1.33-1.09-1.82-.61-.49-1.33-.71-2.14-.71h-24.94c-.91,0-1.7.29-2.35.88-.66.6-.96,1.36-.96,2.21s.33,1.52.96,2.09c.64.59,1.44.88,2.35.88h17.64ZM238.69,64.28h-4.35v7.51c0,1.01.46,1.43,1.56,1.43h1.23c1.1,0,1.56-.42,1.56-1.43v-7.51h0ZM234.34,58.79h4.35v-7.59h-4.35v7.59h0ZM234.34,45.71h4.35v-6.8h-4.35v6.8Z"/>
    </g>
  </g>
</svg>