<?xml version="1.0" encoding="UTF-8"?>
<svg id="_图层_2" xmlns="http://www.w3.org/2000/svg" version="1.1" viewBox="0 0 417.2 189.2">
  <!-- Generator: Adobe Illustrator 29.8.1, SVG Export Plug-In . SVG Version: 2.1.1 Build 2)  -->
  <defs>
    <style>
      .st0 {
        fill: #fff;
      }
    </style>
  </defs>
  <path class="st0" d="M130.6,81.6v-5.2h-18.2v38.7h5.6v-16.8h11.7v-5.1h-11.7v-11.5h12.6,0ZM150.5,105.9c-.4,3.1-1.8,4.6-4.9,4.6s-4.6-1.8-4.6-5.8v-2.2h14.9v-6.5c0-6.9-3.9-10.8-10.2-10.8s-10,3.9-10,10.8v8.7c0,7,3.8,10.9,9.9,10.9s9.9-3.5,10.4-9.7h-5.5ZM145.6,90.2c3.1,0,4.9,1.8,4.9,5.7v2.5h-9.6v-2.5c0-4,1.8-5.7,4.7-5.7h0ZM189.1,85.1c-3.4,0-5.9,1.6-7.3,4.4-1.4-3-3.7-4.4-6.8-4.4s-5.5,1.5-7,4l-.6-3.3h-3.8v29.1h5.3v-18c0-4.3,1.9-6.7,4.8-6.7s4,1.8,4,6.7v18.1h5.3v-18c0-4.3,1.9-6.7,4.9-6.7s3.9,1.8,3.9,6.7v18.1h5.3v-18.2c0-7.8-3-11.6-8-11.6h0v-.2ZM216.7,110.3c-2.9,0-4.2-1.5-4.2-4.6v-14.9h5.4v-4.9h-5.4v-6.9h-5.3v6.9h-4.1v4.9h4.1v14.9c0,6,3.4,9.7,9.2,9.7h2v-5h-1.8.1ZM235,115.6c6.4,0,10.3-3.9,10.3-11v-8.4c0-7.1-3.9-11-10.3-11s-10.2,3.9-10.2,11v8.4c0,7.1,3.9,11,10.2,11h0ZM235,110.4c-3,0-4.8-1.8-4.8-5.9v-8.4c0-4.1,1.8-5.9,4.8-5.9s4.9,1.8,4.9,5.9v8.4c0,4.1-1.8,5.9-4.9,5.9h0ZM278.7,76.3l-6.5,15.7c-.9,2.2-2.2,5.9-2.8,7.7h-.2c-.6-1.8-1.9-5.5-2.8-7.7l-6.5-15.7h-5.7v38.7h5.5v-15.1c-.1-4.4-.3-8.5-.4-12.5h.2c1.1,3,2.4,6.5,3.8,10.1l3.4,8.8h5.5l3.4-8.8c1.3-3.5,2.7-7.1,3.8-10.2h.2c-.2,4.1-.3,8.2-.4,12.6v15.1h5.5v-38.7h-6ZM303,85.1c-5.9,0-9.6,3.4-9.9,9h5.4c.3-2.6,2-3.9,4.4-3.9s4.2,1.9,4.2,5.4v2.1h-4.3c-6.5,0-10.6,3-10.6,8.9s3.6,9,8.9,9,5.2-1.4,6.5-3.5l.4,2.8h4.4v-19.3c0-6.7-3.2-10.5-9.4-10.5h0ZM307.1,106c0,3-1.8,4.9-4.7,4.9s-4.6-1.6-4.6-4.3,1.9-4.5,5.1-4.5h4.3v3.8h0ZM333.1,85.2c-3.4,0-5.9,1.5-7.5,4.2l-.6-3.5h-3.8v29.1h5.4v-17.5c0-4.7,2.3-7.2,6-7.2s2.5.2,3.6.7v-5.3c-.8-.3-1.8-.4-3-.4h-.1ZM351.4,115.6c6.2,0,10.1-3.9,10.2-10.7h-5.4c-.2,3.7-1.8,5.5-4.8,5.5s-4.5-1.8-4.5-5.5v-9.2c0-3.7,1.7-5.5,4.5-5.5s4.6,1.8,4.8,5.5h5.4c-.2-6.7-3.8-10.6-10.2-10.6s-9.8,3.9-9.8,10.6v9.2c0,6.8,3.8,10.7,9.8,10.7h0ZM380.2,85.1c-2.8,0-5,1.4-6.4,3.5v-13.6h-5.4v39.9h5.4v-18c0-4.3,1.9-6.7,5-6.7s4.1,2,4.1,7.2v17.6h5.4v-17.7c0-8.2-2.9-12.1-8-12.1h-.1Z"/>
  <path class="st0" d="M50.8,142.3l-3.4-2,2.9-5,3.4,2c1.2.7,1.6,2.2.9,3.4l-.4.6c-.7,1.2-2.2,1.6-3.4.9h0ZM74.3,136h-3.9v-5.7h3.9c1.4,0,2.5,1.1,2.5,2.5v.7c0,1.4-1.1,2.5-2.5,2.5h0ZM68,142.6v-17.5c0-1.4.5-2.7,1.6-3.7.5-.5,1.1-.8,1.6-1.1,1.1-.6,1.7-.8,2.7-1.3-1-1.9-1.6-3-2.4-4.8-2.3.4-4.2,1.4-5.9,3.1-2.2,2.1-3.2,4.7-3.2,7.8v17.5c0,1.4,1.1,2.5,2.5,2.5h.7c1.4,0,2.5-1.1,2.5-2.5h0ZM91.4,118.8l-3.4,2-2.9-5,3.4-2c1.2-.7,2.7-.3,3.4.9l.4.6c.7,1.2.3,2.7-.9,3.4h0ZM89.3,127.6l-8.8-15.2c-.7-1.2-.9-2.6-.5-4,.2-.7.5-1.2.8-1.8.7-1.1,1.1-1.5,1.7-2.5-1.8-1.1-2.9-1.8-4.5-2.9-1.8,1.4-3,3.3-3.6,5.6-.8,2.9-.4,5.7,1.1,8.4l8.8,15.2c.7,1.2,2.2,1.6,3.4.9.2-.1.4-.2.6-.4,1.2-.7,1.6-2.2.9-3.4h0ZM97.7,95.3l-2,3.4-5-2.9,2-3.4c.7-1.2,2.2-1.6,3.4-.9l.6.4c1.2.7,1.6,2.2.9,3.4h0ZM100.2,104c1.2.7,1.6,2.2.9,3.4,0,.2-.2.4-.4.6-.7,1.2-2.2,1.6-3.4.9l-15.2-8.8c-2.6-1.5-4.3-3.8-5.1-6.7-.6-2.3-.5-4.6.3-6.7,1.9,0,3.3.2,5.3.3,0,1.1-.3,1.7-.3,3s0,1.3.2,2c.4,1.4,1.2,2.5,2.4,3.2l15.2,8.8h0ZM91.3,71.9v3.9h-5.7v-3.9c0-1.4,1.1-2.5,2.5-2.5h.7c1.4,0,2.5,1.1,2.5,2.5h0ZM97.9,78.1h-17.5c-1.4,0-2.7-.5-3.7-1.6-.5-.5-.8-1.1-1.1-1.6-.6-1.1-.8-1.7-1.3-2.7-1.9,1-3,1.6-4.8,2.4.4,2.3,1.4,4.2,3.1,5.9,2.1,2.2,4.7,3.2,7.8,3.2h17.5c1.4,0,2.5-1.1,2.5-2.5v-.7c0-1.4-1.1-2.5-2.5-2.5h0ZM74.1,54.7l2,3.4-5,2.9-2-3.4c-.7-1.2-.3-2.7.9-3.4l.6-.4c1.2-.7,2.7-.3,3.4.9h0ZM83,56.8l-15.2,8.8c-1.2.7-2.6.9-4,.5-.7-.2-1.2-.5-1.8-.8-1.1-.7-1.5-1.1-2.5-1.7-1.1,1.8-1.8,2.9-2.9,4.5,1.4,1.8,3.3,3,5.6,3.6,2.9.8,5.7.4,8.4-1.1l15.2-8.8c1.2-.7,1.6-2.2.9-3.4,0-.2-.2-.4-.4-.6-.7-1.2-2.2-1.6-3.4-.9h.1ZM50.7,48.5l3.4,2-2.9,5-3.4-2c-1.2-.7-1.6-2.2-.9-3.4l.4-.6c.7-1.2,2.2-1.6,3.4-.9h0ZM59.4,45.9c.7-1.2,2.2-1.6,3.4-.9.2,0,.4.2.6.4,1.2.7,1.6,2.2.9,3.4l-8.8,15.2c-1.5,2.6-3.8,4.3-6.7,5.1-2.3.6-4.6.5-6.7-.3,0-1.9.2-3.3.3-5.3,1.1,0,1.7.3,3,.3s1.3,0,2-.2c1.4-.4,2.5-1.2,3.2-2.4l8.8-15.2h0ZM27.2,54.8h3.9v5.7h-3.9c-1.4,0-2.5-1.1-2.5-2.5v-.7c0-1.4,1.1-2.5,2.5-2.5h0ZM33.5,48.2v17.5c0,1.4-.5,2.7-1.6,3.7-.5.5-1.1.8-1.6,1.1-1.1.6-1.7.8-2.7,1.3,1,1.9,1.6,3,2.4,4.8,2.3-.4,4.2-1.4,5.9-3.1,2.2-2.1,3.2-4.7,3.2-7.8v-17.5c0-1.4-1.1-2.5-2.5-2.5h-.7c-1.4,0-2.5,1.1-2.5,2.5h.1ZM10.1,72l3.4-2,2.9,5-3.4,2c-1.2.7-2.7.3-3.4-.9l-.4-.6c-.7-1.2-.3-2.7.9-3.4h0ZM12.2,63.2l8.8,15.2c.7,1.2.9,2.6.5,4-.2.7-.5,1.2-.8,1.8-.7,1.1-1.1,1.5-1.7,2.5,1.8,1.1,2.9,1.8,4.5,2.9,1.8-1.4,3-3.3,3.6-5.6.8-2.9.4-5.7-1.1-8.4l-8.8-15.2c-.7-1.2-2.2-1.6-3.4-.9-.2,0-.4.2-.6.4-1.2.7-1.6,2.2-.9,3.4h-.1ZM3.8,95.5l2-3.4,5,2.9-2,3.4c-.7,1.2-2.2,1.6-3.4.9l-.6-.4c-1.2-.7-1.6-2.2-.9-3.4h-.1ZM1.2,86.8c-1.2-.7-1.6-2.2-.9-3.4,0-.2.2-.4.4-.6.7-1.2,2.2-1.6,3.4-.9l15.2,8.8c2.6,1.5,4.3,3.8,5.1,6.7.6,2.3.5,4.6-.3,6.7-1.9,0-3.3-.2-5.3-.3.1-1.1.3-1.7.3-3s0-1.3-.2-2c-.4-1.4-1.2-2.5-2.4-3.2l-15.2-8.8h0ZM10.2,118.9v-3.9h5.7v3.9c0,1.4-1.1,2.5-2.5,2.5h-.7c-1.4,0-2.5-1.1-2.5-2.5h0ZM3.6,112.7h17.5c1.4,0,2.7.5,3.7,1.6s.8,1.1,1.1,1.6c.6,1.1.8,1.7,1.3,2.7,1.9-1,3-1.6,4.8-2.4-.4-2.3-1.4-4.2-3.1-5.9-2.1-2.2-4.7-3.2-7.8-3.2H3.6c-1.4,0-2.5,1.1-2.5,2.5v.7c0,1.4,1.1,2.5,2.5,2.5h0ZM27.4,136.1l-2-3.4,5-2.9,2,3.4c.7,1.2.3,2.7-.9,3.4l-.6.4c-1.2.7-2.7.3-3.4-.9h-.1ZM18.5,133.9l15.2-8.8c1.2-.7,2.6-.9,4-.5.7.2,1.2.5,1.8.8,1.1.7,1.5,1.1,2.5,1.7,1.1-1.8,1.8-2.9,2.9-4.5-1.4-1.8-3.3-3-5.6-3.6-2.9-.8-5.7-.4-8.4,1.1l-15.2,8.8c-1.2.7-1.6,2.2-.9,3.4.1.2.2.4.4.6.7,1.2,2.2,1.6,3.4.9h-.1ZM42.1,144.9l8.8-15.2c.7-1.2,1.8-2.1,3.2-2.4.7-.2,1.3-.2,2-.2,1.3,0,1.9,0,3,.3,0-2.1.2-3.4.3-5.3-2.1-.8-4.4-.9-6.7-.3-2.9.8-5.2,2.5-6.7,5.1l-8.8,15.2c-.7,1.2-.3,2.7.9,3.4.2.1.4.2.6.4,1.2.7,2.7.3,3.4-.9h0Z"/>
  <path class="st0" d="M410.3,47.8c2.2,1.2,3.9,3,5.2,5.2,1.2,2.2,1.9,4.7,1.9,7.5s-.6,5.3-1.9,7.5c-1.2,2.2-3,3.9-5.2,5.2-2.2,1.2-4.7,1.8-7.5,1.8s-5.4-.6-7.6-1.8c-2.2-1.3-3.9-3-5.2-5.2-1.2-2.2-1.9-4.7-1.9-7.5s.6-5.3,1.9-7.5c1.2-2.2,3-4,5.2-5.2,2.2-1.2,4.7-1.9,7.6-1.9s5.3.6,7.5,1.9ZM409,71.2c1.9-1,3.3-2.5,4.3-4.4,1-1.9,1.6-4,1.6-6.3s-.5-4.5-1.6-6.3c-1-1.9-2.5-3.3-4.3-4.4-1.9-1.1-4-1.6-6.3-1.6s-4.5.5-6.3,1.6c-1.8,1.1-3.3,2.5-4.3,4.4-1.1,1.9-1.6,4-1.6,6.3s.5,4.5,1.6,6.3c1.1,1.9,2.5,3.3,4.3,4.4,1.8,1.1,3.9,1.6,6.3,1.6s4.4-.5,6.3-1.6ZM408.5,60c-.6.9-1.5,1.5-2.7,1.9l4.7,7.8h-3.6l-4.3-7.3h-2.7v7.3h-3v-18.4h5.5c2.2,0,4,.5,5.2,1.5,1.2,1,1.9,2.4,1.9,4.1s-.3,2.3-.9,3.1ZM400,54.3v5.1h2.3c2.7,0,4-.8,4-2.5s-1.3-2.6-4-2.6h-2.3Z"/>
</svg>