<?xml version="1.0" encoding="UTF-8"?>
<svg id="_图层_2" data-name="图层 2" xmlns="http://www.w3.org/2000/svg" viewBox="0 0 149.27 149.26">
  <defs>
    <style>
      .cls-1 {
        fill: #01bbae;
        fill-rule: evenodd;
      }
    </style>
  </defs>
  <g id="_图层_2-2" data-name=" 图层 2">
    <path class="cls-1" d="M74.75,143.63l-5.03-2.9,4.21-7.29,5.03,2.9c1.75,1.01,2.36,3.27,1.35,5.02l-.53,.92c-1.01,1.75-3.27,2.36-5.02,1.35h-.01Zm34.49-9.31h-5.81v-8.42h5.81c2.03,0,3.68,1.65,3.68,3.68v1.06c0,2.02-1.65,3.68-3.68,3.68h0Zm-9.18,9.69v-25.78c0-2.12,.76-3.94,2.29-5.46,.72-.72,1.54-1.19,2.36-1.65,1.67-.94,2.49-1.19,4.02-1.86-1.4-2.73-2.28-4.44-3.6-6.99-3.32,.53-6.23,2.03-8.73,4.53-3.17,3.15-4.76,6.97-4.76,11.46v25.76c0,2.03,1.65,3.68,3.68,3.68h1.06c2.03,0,3.68-1.65,3.68-3.68h0Zm34.38-35l-5.03,2.9-4.21-7.29,5.03-2.9c1.75-1.01,4.01-.41,5.02,1.35l.53,.92c1.01,1.75,.41,4.01-1.35,5.02h0Zm-3.1,12.98l-12.89-22.33c-1.06-1.83-1.31-3.79-.75-5.88,.26-.98,.74-1.8,1.22-2.61,.98-1.65,1.56-2.27,2.55-3.62-2.58-1.66-4.2-2.7-6.61-4.25-2.61,2.11-4.37,4.87-5.3,8.29-1.17,4.32-.64,8.41,1.6,12.3l12.88,22.31c1.01,1.75,3.27,2.36,5.02,1.35,.31-.18,.61-.35,.92-.53,1.75-1.01,2.36-3.27,1.35-5.02h0Zm12.29-47.5l-2.9,5.03-7.29-4.21,2.9-5.03c1.01-1.75,3.27-2.36,5.02-1.35l.92,.53c1.75,1.01,2.36,3.27,1.35,5.02h0Zm3.8,12.8c1.75,1.01,2.36,3.27,1.35,5.02-.18,.31-.35,.61-.53,.92-1.01,1.75-3.27,2.36-5.02,1.35l-22.31-12.88c-3.89-2.25-6.4-5.53-7.54-9.85-.9-3.42-.76-6.69,.45-9.83,2.87,.14,4.79,.23,7.85,.38-.18,1.66-.38,2.5-.4,4.41-.01,.94-.02,1.89,.24,2.87,.56,2.08,1.75,3.66,3.59,4.71l22.33,12.89h0Zm-13.11-47.26v5.81h-8.42v-5.81c0-2.02,1.65-3.68,3.68-3.68h1.06c2.03,0,3.68,1.65,3.68,3.68h0Zm9.69,9.18h-25.78c-2.12,0-3.94-.76-5.46-2.29-.72-.72-1.19-1.55-1.65-2.37-.94-1.67-1.19-2.49-1.86-4.02-2.73,1.4-4.44,2.28-6.99,3.6,.53,3.32,2.03,6.23,4.53,8.73,3.15,3.17,6.97,4.76,11.46,4.76h25.76c2.03,0,3.68-1.65,3.68-3.68v-1.06c0-2.03-1.65-3.68-3.68-3.68h0ZM109.02,14.82l2.9,5.03-7.29,4.21-2.9-5.03c-1.01-1.75-.41-4.01,1.35-5.02l.92-.53c1.75-1.01,4.01-.41,5.02,1.35h0Zm12.98,3.09l-22.33,12.89c-1.83,1.06-3.79,1.31-5.88,.75-.98-.26-1.8-.74-2.61-1.22-1.65-.98-2.27-1.57-3.62-2.55-1.66,2.58-2.7,4.2-4.25,6.61,2.11,2.61,4.87,4.38,8.29,5.3,4.32,1.17,8.41,.64,12.3-1.6l22.31-12.88c1.75-1.01,2.36-3.27,1.35-5.02-.18-.31-.35-.61-.53-.92-1.01-1.75-3.27-2.36-5.02-1.35h-.01ZM74.51,5.64l5.03,2.9-4.21,7.29-5.03-2.9c-1.75-1.01-2.36-3.27-1.35-5.02l.53-.92c1.01-1.75,3.27-2.36,5.02-1.35h.01Zm12.79-3.8c1.01-1.75,3.27-2.36,5.02-1.35,.31,.18,.61,.35,.92,.53,1.75,1.01,2.36,3.27,1.35,5.02l-12.88,22.31c-2.25,3.89-5.53,6.4-9.85,7.54-3.42,.9-6.69,.76-9.83-.45,.14-2.87,.23-4.79,.38-7.85,1.66,.18,2.5,.38,4.41,.4,.94,.01,1.89,.02,2.87-.24,2.08-.56,3.66-1.75,4.71-3.59L87.3,1.84h0ZM40.03,14.94h5.81v8.42h-5.81c-2.03,0-3.68-1.65-3.68-3.68v-1.06c0-2.03,1.65-3.68,3.68-3.68h0Zm9.18-9.69V31.03c0,2.12-.76,3.94-2.29,5.46-.72,.72-1.55,1.19-2.36,1.65-1.67,.94-2.49,1.19-4.02,1.86,1.4,2.73,2.28,4.44,3.6,6.99,3.32-.53,6.23-2.03,8.73-4.53,3.17-3.15,4.76-6.97,4.76-11.46V5.25c0-2.03-1.65-3.68-3.68-3.68h-1.06c-2.03,0-3.68,1.65-3.68,3.68h0ZM14.82,40.24l5.03-2.9,4.21,7.29-5.03,2.9c-1.75,1.01-4.01,.41-5.02-1.35l-.53-.92c-1.01-1.75-.41-4.01,1.35-5.02h-.01Zm3.1-12.98l12.89,22.33c1.06,1.83,1.31,3.79,.75,5.88-.26,.98-.74,1.8-1.23,2.61-.98,1.65-1.56,2.27-2.55,3.62,2.58,1.66,4.2,2.7,6.61,4.25,2.61-2.11,4.37-4.87,5.3-8.29,1.17-4.32,.64-8.41-1.6-12.3l-12.88-22.31c-1.01-1.75-3.27-2.36-5.02-1.35-.31,.18-.61,.35-.92,.53-1.75,1.01-2.36,3.27-1.35,5.02h0ZM5.64,74.75l2.9-5.03,7.29,4.21-2.9,5.03c-1.01,1.75-3.27,2.36-5.02,1.35l-.92-.53c-1.75-1.01-2.36-3.27-1.35-5.02h0Zm-3.8-12.8c-1.75-1.01-2.36-3.27-1.35-5.02,.18-.31,.35-.61,.53-.92,1.01-1.75,3.27-2.36,5.02-1.35l22.31,12.88c3.89,2.25,6.4,5.53,7.54,9.85,.9,3.42,.76,6.69-.45,9.83-2.87-.14-4.79-.23-7.85-.38,.18-1.66,.38-2.5,.4-4.41,.01-.94,.02-1.89-.24-2.87-.56-2.08-1.75-3.66-3.59-4.71L1.84,61.96h0Zm13.1,47.28v-5.81h8.42v5.81c0,2.03-1.65,3.68-3.68,3.68h-1.06c-2.02,0-3.68-1.65-3.68-3.68h0Zm-9.69-9.18H31.03c2.12,0,3.94,.76,5.46,2.29,.72,.72,1.19,1.55,1.65,2.36,.94,1.67,1.19,2.49,1.86,4.02,2.73-1.4,4.44-2.28,6.99-3.6-.53-3.32-2.03-6.23-4.53-8.73-3.15-3.17-6.97-4.76-11.46-4.76H5.25c-2.03,0-3.68,1.65-3.68,3.68v1.06c0,2.03,1.65,3.68,3.68,3.68h0Zm34.99,34.38l-2.9-5.03,7.29-4.21,2.9,5.03c1.01,1.75,.41,4.01-1.35,5.02l-.92,.53c-1.75,1.01-4.01,.41-5.02-1.35h0Zm-12.98-3.09l22.33-12.89c1.83-1.06,3.79-1.31,5.88-.75,.98,.26,1.8,.74,2.61,1.22,1.65,.98,2.27,1.56,3.62,2.55,1.66-2.58,2.7-4.2,4.25-6.61-2.11-2.61-4.87-4.37-8.29-5.3-4.32-1.17-8.41-.64-12.3,1.6l-22.31,12.88c-1.75,1.01-2.36,3.27-1.35,5.02,.18,.31,.35,.61,.53,.92,1.01,1.75,3.27,2.36,5.02,1.35h.01Zm34.7,16.1l12.89-22.33c1.06-1.83,2.63-3.03,4.71-3.59,.98-.26,1.93-.26,2.87-.24,1.92,.03,2.75,.22,4.41,.4,.15-3.06,.24-4.98,.38-7.85-3.13-1.2-6.41-1.35-9.83-.45-4.32,1.14-7.61,3.65-9.85,7.54l-12.88,22.31c-1.01,1.75-.41,4.01,1.35,5.02,.31,.18,.61,.35,.92,.53,1.75,1.01,4.01,.41,5.02-1.35h.01Z"/>
  </g>
</svg>