<svg width="36" height="36" viewBox="0 0 36 36" fill="none" xmlns="http://www.w3.org/2000/svg">
<path fill-rule="evenodd" clip-rule="evenodd" d="M18 36C27.9411 36 36 27.9411 36 18C36 8.05887 27.9411 0 18 0C8.05887 0 0 8.05887 0 18C0 27.9411 8.05887 36 18 36ZM6.00017 17C6.00017 18.9911 6.77307 20.8124 8.0519 22.2125V25L10.8732 24.2372C11.9732 24.7264 13.2028 25 14.5002 25C16.2072 25 17.7967 24.5264 19.1285 23.7112C20.2178 25.0975 21.994 26 24.0002 26C24.916 26 25.7839 25.8119 26.5604 25.4756L28.5519 26V24.0836C29.4546 23.121 30.0002 21.8689 30.0002 20.5C30.0002 17.4624 27.3139 15 24.0002 15C23.5762 15 23.1625 15.0403 22.7634 15.117C21.8637 11.6073 18.5055 9 14.5002 9C9.80575 9 6.00017 12.5817 6.00017 17ZM12.5 14.75C12.5 15.1642 12.1642 15.5 11.75 15.5C11.3358 15.5 11 15.1642 11 14.75C11 14.3358 11.3358 14 11.75 14C12.1642 14 12.5 14.3358 12.5 14.75ZM17.75 15.5C18.1642 15.5 18.5 15.1642 18.5 14.75C18.5 14.3358 18.1642 14 17.75 14C17.3358 14 17 14.3358 17 14.75C17 15.1642 17.3358 15.5 17.75 15.5ZM23.5 19.75C23.5 20.1642 23.1642 20.5 22.75 20.5C22.3358 20.5 22 20.1642 22 19.75C22 19.3358 22.3358 19 22.75 19C23.1642 19 23.5 19.3358 23.5 19.75ZM26.75 20.5C27.1642 20.5 27.5 20.1642 27.5 19.75C27.5 19.3358 27.1642 19 26.75 19C26.3358 19 26 19.3358 26 19.75C26 20.1642 26.3358 20.5 26.75 20.5Z" fill="black"/>
</svg>
