<?xml version="1.0" encoding="UTF-8"?>
<svg id="_图层_2" data-name="图层 2" xmlns="http://www.w3.org/2000/svg" viewBox="0 0 64 64">
  <defs>
    <style>
      .cls-1 {
        fill: #fff;
      }

      .cls-2 {
        fill: #01bbae;
        fill-rule: evenodd;
      }
    </style>
  </defs>
  <g id="_图层_1-2" data-name="图层 1">
    <g>
      <rect class="cls-1" width="64" height="64"/>
      <path class="cls-2" d="M32.05,58.32l-1.92-1.11,1.61-2.78,1.92,1.11c.67.39.9,1.25.51,1.92l-.2.35c-.39.67-1.25.9-1.92.51h0ZM45.2,54.77h-2.21v-3.21h2.21c.77,0,1.4.63,1.4,1.4v.41c0,.77-.63,1.4-1.4,1.4h0ZM41.7,58.46v-9.83c0-.81.29-1.5.87-2.08.27-.27.59-.45.9-.63.64-.36.95-.45,1.53-.71-.54-1.04-.87-1.69-1.37-2.67-1.26.2-2.37.78-3.33,1.73-1.21,1.2-1.82,2.66-1.82,4.37v9.83c0,.77.63,1.4,1.4,1.4h.41c.77,0,1.4-.63,1.4-1.4h0ZM54.81,45.12l-1.92,1.11-1.61-2.78,1.92-1.11c.67-.39,1.53-.16,1.92.51l.2.35c.39.67.16,1.53-.51,1.92h0ZM53.63,50.07l-4.92-8.52c-.4-.7-.5-1.45-.29-2.24.1-.37.28-.69.47-.99.37-.63.6-.87.97-1.38-.98-.63-1.6-1.03-2.52-1.62-1,.81-1.67,1.86-2.02,3.16-.45,1.65-.24,3.21.61,4.69l4.91,8.51c.39.67,1.25.9,1.92.51.12-.07.23-.14.35-.2.67-.39.9-1.25.51-1.92h0ZM58.32,31.95l-1.11,1.92-2.78-1.61,1.11-1.92c.39-.67,1.25-.9,1.92-.51l.35.2c.67.39.9,1.25.51,1.92h0ZM59.77,36.83c.67.39.9,1.25.51,1.92-.07.12-.14.23-.2.35-.39.67-1.25.9-1.92.51l-8.51-4.91c-1.48-.86-2.44-2.11-2.88-3.76-.35-1.3-.29-2.55.17-3.75,1.09.05,1.83.09,2.99.14-.07.63-.14.95-.15,1.68,0,.36,0,.72.09,1.1.21.8.67,1.39,1.37,1.8l8.52,4.92h0ZM54.77,18.8v2.21h-3.21v-2.21c0-.77.63-1.4,1.4-1.4h.41c.77,0,1.4.63,1.4,1.4h0ZM58.46,22.3h-9.83c-.81,0-1.5-.29-2.08-.87-.27-.27-.45-.59-.63-.9-.36-.64-.45-.95-.71-1.53-1.04.54-1.69.87-2.67,1.37.2,1.26.78,2.37,1.73,3.33,1.2,1.21,2.66,1.82,4.37,1.82h9.83c.77,0,1.4-.63,1.4-1.4v-.41c0-.77-.63-1.4-1.4-1.4h0ZM45.12,9.19l1.11,1.92-2.78,1.61-1.11-1.92c-.39-.67-.16-1.53.51-1.92l.35-.2c.67-.39,1.53-.16,1.92.51h0ZM50.07,10.37l-8.52,4.92c-.7.4-1.45.5-2.24.29-.37-.1-.69-.28-1-.47-.63-.37-.87-.6-1.38-.97-.63.98-1.03,1.6-1.62,2.52.81,1,1.86,1.67,3.16,2.02,1.65.45,3.21.24,4.69-.61l8.51-4.91c.67-.39.9-1.25.51-1.92-.07-.12-.14-.23-.2-.35-.39-.67-1.25-.9-1.92-.51h0ZM31.95,5.68l1.92,1.11-1.61,2.78-1.92-1.11c-.67-.39-.9-1.25-.51-1.92l.2-.35c.39-.67,1.25-.9,1.92-.51h0ZM36.83,4.23c.39-.67,1.25-.9,1.92-.51.12.07.23.14.35.2.67.39.9,1.25.51,1.92l-4.91,8.51c-.86,1.48-2.11,2.44-3.76,2.88-1.3.35-2.55.29-3.75-.17.05-1.09.09-1.83.14-2.99.63.07.95.14,1.68.15.36,0,.72,0,1.1-.09.8-.21,1.39-.67,1.8-1.37l4.92-8.52h0ZM18.8,9.23h2.21v3.21h-2.21c-.77,0-1.4-.63-1.4-1.4v-.41c0-.77.63-1.4,1.4-1.4h0ZM22.3,5.54v9.83c0,.81-.29,1.5-.87,2.08-.27.27-.59.45-.9.63-.64.36-.95.45-1.53.71.54,1.04.87,1.69,1.37,2.67,1.26-.2,2.37-.78,3.33-1.73,1.21-1.2,1.82-2.66,1.82-4.37V5.54c0-.77-.63-1.4-1.4-1.4h-.41c-.77,0-1.4.63-1.4,1.4h0ZM9.19,18.88l1.92-1.11,1.61,2.78-1.92,1.11c-.67.39-1.53.16-1.92-.51l-.2-.35c-.39-.67-.16-1.53.51-1.92h0ZM10.37,13.93l4.92,8.52c.4.7.5,1.45.29,2.24-.1.37-.28.69-.47,1-.37.63-.6.87-.97,1.38.98.63,1.6,1.03,2.52,1.62,1-.81,1.67-1.86,2.02-3.16.45-1.65.24-3.21-.61-4.69l-4.91-8.51c-.39-.67-1.25-.9-1.92-.51-.12.07-.23.14-.35.2-.67.39-.9,1.25-.51,1.92h0ZM5.68,32.05l1.11-1.92,2.78,1.61-1.11,1.92c-.39.67-1.25.9-1.92.51l-.35-.2c-.67-.39-.9-1.25-.51-1.92h0ZM4.23,27.17c-.67-.39-.9-1.25-.51-1.92.07-.12.14-.23.2-.35.39-.67,1.25-.9,1.92-.51l8.51,4.91c1.48.86,2.44,2.11,2.88,3.76.35,1.3.29,2.55-.17,3.75-1.09-.05-1.83-.09-2.99-.14.07-.63.14-.95.15-1.68,0-.36,0-.72-.09-1.1-.21-.79-.67-1.39-1.37-1.8l-8.52-4.92h0ZM9.23,45.2v-2.21h3.21v2.21c0,.77-.63,1.4-1.4,1.4h-.41c-.77,0-1.4-.63-1.4-1.4h0ZM5.54,41.7h9.83c.81,0,1.5.29,2.08.87.27.27.45.59.63.9.36.64.45.95.71,1.53,1.04-.54,1.69-.87,2.67-1.37-.2-1.27-.78-2.37-1.73-3.33-1.2-1.21-2.66-1.82-4.37-1.82H5.54c-.77,0-1.4.63-1.4,1.4v.41c0,.77.63,1.4,1.4,1.4h0ZM18.88,54.81l-1.11-1.92,2.78-1.61,1.11,1.92c.39.67.16,1.53-.51,1.92l-.35.2c-.67.39-1.53.16-1.92-.51h0ZM13.93,53.63l8.52-4.92c.7-.4,1.45-.5,2.24-.29.37.1.69.28,1,.47.63.37.87.6,1.38.97.63-.98,1.03-1.6,1.62-2.52-.81-1-1.86-1.67-3.16-2.02-1.65-.45-3.21-.24-4.69.61l-8.51,4.91c-.67.39-.9,1.25-.51,1.92.07.12.14.23.2.35.39.67,1.25.9,1.92.51h0ZM27.17,59.77l4.92-8.52c.4-.7,1-1.16,1.8-1.37.37-.1.74-.1,1.1-.09.73,0,1.05.08,1.68.15.06-1.17.09-1.9.14-2.99-1.2-.46-2.44-.52-3.75-.17-1.65.44-2.9,1.39-3.76,2.88l-4.91,8.51c-.39.67-.16,1.53.51,1.92.12.07.23.14.35.2.67.39,1.53.16,1.92-.51Z"/>
    </g>
  </g>
</svg>