<?xml version="1.0" encoding="UTF-8"?>
<svg id="_图层_2" data-name="图层 2" xmlns="http://www.w3.org/2000/svg" viewBox="0 0 388.2 149.27">
  <defs>
    <style>
      .cls-1 {
        fill: #fff;
        fill-rule: evenodd;
      }
    </style>
  </defs>
  <g id="_图层_1-2" data-name="图层 1">
    <path class="cls-1" d="M74.75,143.63l-5.03-2.9,4.21-7.29,5.03,2.9c1.75,1.01,2.36,3.27,1.35,5.02l-.53.92c-1.01,1.75-3.27,2.36-5.02,1.35h0ZM109.24,134.32h-5.81v-8.42h5.81c2.03,0,3.68,1.65,3.68,3.68v1.06c0,2.02-1.65,3.68-3.68,3.68h0ZM100.06,144.01v-25.78c0-2.12.76-3.94,2.29-5.46.72-.72,1.54-1.19,2.36-1.65,1.67-.94,2.49-1.19,4.02-1.86-1.4-2.73-2.28-4.44-3.6-6.99-3.32.53-6.23,2.03-8.73,4.53-3.17,3.15-4.76,6.97-4.76,11.46v25.76c0,2.03,1.65,3.68,3.68,3.68h1.06c2.03,0,3.68-1.65,3.68-3.68h0ZM134.44,109.02l-5.03,2.9-4.21-7.29,5.03-2.9c1.75-1.01,4.01-.41,5.02,1.35l.53.92c1.01,1.75.41,4.01-1.35,5.02h0ZM131.34,122l-12.89-22.33c-1.06-1.83-1.31-3.79-.75-5.88.26-.98.74-1.8,1.22-2.61.98-1.65,1.56-2.27,2.55-3.62-2.58-1.66-4.2-2.7-6.61-4.25-2.61,2.11-4.37,4.87-5.3,8.29-1.17,4.32-.64,8.41,1.6,12.3l12.88,22.31c1.01,1.75,3.27,2.36,5.02,1.35.31-.18.61-.35.92-.53,1.75-1.01,2.36-3.27,1.35-5.02h0ZM143.63,74.51l-2.9,5.03-7.29-4.21,2.9-5.03c1.01-1.75,3.27-2.36,5.02-1.35l.92.53c1.75,1.01,2.36,3.27,1.35,5.02h0ZM147.43,87.3c1.75,1.01,2.36,3.27,1.35,5.02-.18.31-.35.61-.53.92-1.01,1.75-3.27,2.36-5.02,1.35l-22.31-12.88c-3.89-2.25-6.4-5.53-7.54-9.85-.9-3.42-.76-6.69.45-9.83,2.87.14,4.79.23,7.85.38-.18,1.66-.38,2.5-.4,4.41-.01.94-.02,1.89.24,2.87.56,2.08,1.75,3.66,3.59,4.71l22.33,12.89h0ZM134.32,40.03v5.81h-8.42v-5.81c0-2.02,1.65-3.68,3.68-3.68h1.06c2.03,0,3.68,1.65,3.68,3.68h0ZM144.01,49.21h-25.78c-2.12,0-3.94-.76-5.46-2.29-.72-.72-1.19-1.55-1.65-2.37-.94-1.67-1.19-2.49-1.86-4.02-2.73,1.4-4.44,2.28-6.99,3.6.53,3.32,2.03,6.23,4.53,8.73,3.15,3.17,6.97,4.76,11.46,4.76h25.76c2.03,0,3.68-1.65,3.68-3.68v-1.06c0-2.03-1.65-3.68-3.68-3.68h0ZM109.02,14.82l2.9,5.03-7.29,4.21-2.9-5.03c-1.01-1.75-.41-4.01,1.35-5.02l.92-.53c1.75-1.01,4.01-.41,5.02,1.35h0ZM122,17.92l-22.33,12.89c-1.83,1.06-3.79,1.31-5.88.75-.98-.26-1.8-.74-2.61-1.22-1.65-.98-2.27-1.57-3.62-2.55-1.66,2.58-2.7,4.2-4.25,6.61,2.11,2.61,4.87,4.38,8.29,5.3,4.32,1.17,8.41.64,12.3-1.6l22.31-12.88c1.75-1.01,2.36-3.27,1.35-5.02-.18-.31-.35-.61-.53-.92-1.01-1.75-3.27-2.36-5.02-1.35h0ZM74.51,5.64l5.03,2.9-4.21,7.29-5.03-2.9c-1.75-1.01-2.36-3.27-1.35-5.02l.53-.92c1.01-1.75,3.27-2.36,5.02-1.35h0ZM87.3,1.84c1.01-1.75,3.27-2.36,5.02-1.35.31.18.61.35.92.53,1.75,1.01,2.36,3.27,1.35,5.02l-12.88,22.31c-2.25,3.89-5.53,6.4-9.85,7.54-3.42.9-6.69.76-9.83-.45.14-2.87.23-4.79.38-7.85,1.66.18,2.5.38,4.41.4.94.01,1.89.02,2.87-.24,2.08-.56,3.66-1.75,4.71-3.59L87.3,1.84h0ZM40.03,14.94h5.81v8.42h-5.81c-2.03,0-3.68-1.65-3.68-3.68v-1.06c0-2.03,1.65-3.68,3.68-3.68h0ZM49.21,5.25v25.78c0,2.12-.76,3.94-2.29,5.46-.72.72-1.55,1.19-2.36,1.65-1.67.94-2.49,1.19-4.02,1.86,1.4,2.73,2.28,4.44,3.6,6.99,3.32-.53,6.23-2.03,8.73-4.53,3.17-3.15,4.76-6.97,4.76-11.46V5.25c0-2.03-1.65-3.68-3.68-3.68h-1.06c-2.03,0-3.68,1.65-3.68,3.68h0ZM14.82,40.24l5.03-2.9,4.21,7.29-5.03,2.9c-1.75,1.01-4.01.41-5.02-1.35l-.53-.92c-1.01-1.75-.41-4.01,1.35-5.02h0ZM17.92,27.26l12.89,22.33c1.06,1.83,1.31,3.79.75,5.88-.26.98-.74,1.8-1.23,2.61-.98,1.65-1.56,2.27-2.55,3.62,2.58,1.66,4.2,2.7,6.61,4.25,2.61-2.11,4.37-4.87,5.3-8.29,1.17-4.32.64-8.41-1.6-12.3l-12.88-22.31c-1.01-1.75-3.27-2.36-5.02-1.35-.31.18-.61.35-.92.53-1.75,1.01-2.36,3.27-1.35,5.02h0ZM5.64,74.75l2.9-5.03,7.29,4.21-2.9,5.03c-1.01,1.75-3.27,2.36-5.02,1.35l-.92-.53c-1.75-1.01-2.36-3.27-1.35-5.02h0ZM1.84,61.96c-1.75-1.01-2.36-3.27-1.35-5.02.18-.31.35-.61.53-.92,1.01-1.75,3.27-2.36,5.02-1.35l22.31,12.88c3.89,2.25,6.4,5.53,7.54,9.85.9,3.42.76,6.69-.45,9.83-2.87-.14-4.79-.23-7.85-.38.18-1.66.38-2.5.4-4.41.01-.94.02-1.89-.24-2.87-.56-2.08-1.75-3.66-3.59-4.71L1.84,61.96h0ZM14.94,109.24v-5.81h8.42v5.81c0,2.03-1.65,3.68-3.68,3.68h-1.06c-2.02,0-3.68-1.65-3.68-3.68h0ZM5.25,100.06h25.78c2.12,0,3.94.76,5.46,2.29.72.72,1.19,1.55,1.65,2.36.94,1.67,1.19,2.49,1.86,4.02,2.73-1.4,4.44-2.28,6.99-3.6-.53-3.32-2.03-6.23-4.53-8.73-3.15-3.17-6.97-4.76-11.46-4.76H5.25c-2.03,0-3.68,1.65-3.68,3.68v1.06c0,2.03,1.65,3.68,3.68,3.68h0ZM40.24,134.44l-2.9-5.03,7.29-4.21,2.9,5.03c1.01,1.75.41,4.01-1.35,5.02l-.92.53c-1.75,1.01-4.01.41-5.02-1.35h0ZM27.26,131.34l22.33-12.89c1.83-1.06,3.79-1.31,5.88-.75.98.26,1.8.74,2.61,1.22,1.65.98,2.27,1.56,3.62,2.55,1.66-2.58,2.7-4.2,4.25-6.61-2.11-2.61-4.87-4.37-8.29-5.3-4.32-1.17-8.41-.64-12.3,1.6l-22.31,12.88c-1.75,1.01-2.36,3.27-1.35,5.02.18.31.35.61.53.92,1.01,1.75,3.27,2.36,5.02,1.35h0ZM61.96,147.43l12.89-22.33c1.06-1.83,2.63-3.03,4.71-3.59.98-.26,1.93-.26,2.87-.24,1.92.03,2.75.22,4.41.4.15-3.06.24-4.98.38-7.85-3.13-1.2-6.41-1.35-9.83-.45-4.32,1.14-7.61,3.65-9.85,7.54l-12.88,22.31c-1.01,1.75-.41,4.01,1.35,5.02.31.18.61.35.92.53,1.75,1.01,4.01.41,5.02-1.35Z"/>
    <g>
      <path class="cls-1" d="M165.51,31.26c-2.02.14-3.18,1.16-3.48,3.04.15,2.03,1.23,3.12,3.27,3.26h21.32c.44,0,.65.22.65.66-.58,26.1,4.64,40.02,15.67,41.76,5.08.14,7.54-4.28,7.4-13.27-.15-2.03-1.16-3.19-3.05-3.48-2.02,0-3.11,1.01-3.26,3.04-.15,3.04-.29,4.86-.44,5.44-.15.72-.58,1.09-1.31,1.09-4.49-1.88-7.32-9.06-8.48-21.53,2.32,1.74,5.15,4.35,8.48,7.83,1.16,1.16,1.89,1.88,2.18,2.17,3.04,1.74,4.78,1.02,5.22-2.17.58-1.31-1.66-3.99-6.74-8.05-1.02-1.02-1.88-1.82-2.62-2.39,3.63-3.92,6.46-7.4,8.49-10.44,1.01-1.88.72-3.48-.87-4.79-1.74-1.01-3.27-.65-4.57,1.09-3.92,5.51-7.11,9.14-9.58,10.88v-9.35c.15-3.33-1.52-4.93-5-4.78h-23.28ZM247.43,38.66c-.44,0-.58-.22-.44-.66.73-.86,1.67-1.81,2.83-2.82.72-.72,1.23-1.24,1.52-1.52,1.31-1.46,1.31-2.83,0-4.14-1.45-1.6-2.97-1.6-4.57,0-.72.87-2.17,2.39-4.35,4.57-2.17,2.03-3.62,3.48-4.35,4.35-1.01,1.31-1.3,2.61-.86,3.92.58,1.31,1.6,1.96,3.04,1.96h10.88c-.87.29-1.31.95-1.31,1.96v4.35h-5.87c0-.72.15-1.38.44-1.96.15-2.03-.51-3.19-1.96-3.48-2.03-.44-3.26.29-3.69,2.17-.72,3.04-1.52,5.8-2.39,8.27v-21.1c.15-2.61-.95-3.84-3.27-3.69h-8.7c-2.61-.15-3.84,1.23-3.7,4.13v37.63c-.14,2.32,1.16,3.41,3.92,3.27h8.27c2.47.14,3.63-.95,3.48-3.27v-3.92c.44.59,1.16.87,2.17.87h11.31v8.48c0,1.6,1.01,2.39,3.04,2.39,2.18,0,3.19-.8,3.04-2.39v-8.48h11.54c1.74,0,2.61-1.02,2.61-3.04,0-1.88-.87-2.83-2.61-2.83h-11.54v-7.17h9.35c1.88,0,2.83-1.02,2.83-3.05,0-1.88-.95-2.82-2.83-2.82h-9.35v-4.35c0-.87-.36-1.52-1.09-1.96h8.92c.15.15.29.36.44.65.15.15.21.22.21.22,1.16,1.74,2.68,2.03,4.57.87,1.74-1.46,1.88-3.19.43-5.23-1.88-2.9-3.91-5.51-6.09-7.83-1.6-1.74-3.19-2.02-4.78-.86-1.6,1.45-1.82,2.97-.66,4.57.3.29.66.65,1.09,1.09.3.44.51.72.66.87h-12.18ZM226.33,38.22c0-.87.36-1.31,1.09-1.31h2.39c.58,0,.87.44.87,1.31v5.65h-4.35v-5.65h0ZM226.11,49.53h4.58v7.39h-4.58v-7.39h0ZM227.63,70.41c-.86,0-1.3-.44-1.3-1.31v-6.52h4.35v6.52c0,.87-.44,1.31-1.31,1.31h-1.74ZM238.51,63.67c-1.01,0-1.74.29-2.17.87v-3.92c.29.14.72.36,1.31.65,1.73.44,2.97-.29,3.69-2.17.44-1.16.65-1.82.65-1.96.15-.29.22-.51.22-.65h7.61v7.17h-11.31ZM279.75,73.89c-.29,3.62,1.6,5.29,5.66,5h40.68c1.88-.15,2.9-1.16,3.04-3.04-.15-1.74-1.16-2.69-3.04-2.83h-38.5c-1.01,0-1.52-.58-1.52-1.74v-32.84c.15-1.01.65-1.52,1.52-1.52h7.83c-.72,0-1.31.8-1.74,2.39-.58,2.61-2.1,5.51-4.57,8.7-.87,1.16-.65,2.39.65,3.7,1.46,1.16,2.76,1.23,3.92.21,1.31-1.3,2.39-2.82,3.27-4.57h7.17c0,2.18-.14,4.07-.44,5.66h-14.57c-1.6.14-2.46,1.09-2.61,2.82.15,1.88,1.01,2.9,2.61,3.04h12.62c-2.32,3.34-6.1,6.02-11.31,8.06-1.6.86-2.03,2.17-1.31,3.91,1.02,1.6,2.47,2.11,4.35,1.52,7.54-2.32,12.84-6.81,15.88-13.48h15.88c1.88-.14,2.9-1.16,3.04-3.04-.15-1.74-1.16-2.68-3.04-2.82h-14.79c.29-1.74.44-3.63.44-5.66h12.4c1.45-.14,2.25-1.16,2.39-3.04-.15-1.74-.95-2.68-2.39-2.83h-23.71c1.16-2.32.8-3.84-1.09-4.57h27.63c1.74-.14,2.68-1.16,2.82-3.04-.14-1.88-1.01-2.9-2.61-3.04h-42.2c-2.9,0-4.35,1.6-4.35,4.79v38.28h0ZM322.17,72.36c-3.04-2.02-6.67-4.27-10.88-6.74-1.6-1.01-1.88-2.39-.87-4.13,1.16-1.6,2.53-2.03,4.13-1.31,4.5,2.47,8.06,4.71,10.66,6.75,1.3,1.16,1.52,2.61.65,4.34-1.01,1.6-2.25,1.96-3.69,1.09h0ZM356.66,42.35c-1.73.15-2.68,1.16-2.83,3.04.15,1.88,1.1,2.9,2.83,3.04h18.05c-.86,1.02-3.04,2.54-6.52,4.58-3.62,2.32-4.06,4.2-1.3,5.65,6.52,4.2,9.57,7.54,9.13,10,.15,3.04-2.11,4.57-6.75,4.57-3.33,0-6.74-.36-10.22-1.09-1.88-.29-3.04.36-3.48,1.96-.29,1.88.44,3.19,2.17,3.92,3.19.72,6.89,1.16,11.1,1.31,9.71-.15,14.35-3.63,13.92-10.45,0-3.91-2.98-8.12-8.92-12.61,3.62-2.47,6.74-4.93,9.34-7.4,1.31-1.45,1.6-2.9.87-4.35-.72-1.45-2.17-2.17-4.35-2.17h-23.05ZM347.53,33.65h13.48c-.15-.44-.36-1.02-.65-1.74-.58-1.45.21-2.53,2.39-3.26,1.88-.44,3.27.07,4.14,1.52.58,1.16,1.16,2.32,1.74,3.48h17.19c1.45.14,2.25,1.16,2.39,3.04-.15,2.02-.95,3.12-2.39,3.26h-33.94c-.72,0-1.09.36-1.09,1.09v14.79c0,9.28-1.96,17.04-5.87,23.28-1.01,1.45-2.53,1.6-4.57.44-1.45-1.01-1.74-2.39-.86-4.13,2.61-4.5,4.2-9.79,4.78-15.88-1.16,1.16-2.25,1.96-3.26,2.39-1.46.44-2.62-.21-3.48-1.95-.44-1.46,0-2.76,1.3-3.92.87-.72,2.18-1.74,3.92-3.04.72-.73,1.31-1.24,1.74-1.53v-14.35c-.15-2.47.86-3.63,3.04-3.48h0ZM338.39,43.87c.3,1.31,1.24,1.88,2.83,1.74,1.6-.3,2.39-1.16,2.39-2.62v-.86c-.29-3.34-.65-5.88-1.09-7.62-.3-1.45-1.23-2.1-2.83-1.96-1.74.3-2.53,1.16-2.39,2.62.44,3.04.8,5.94,1.09,8.7Z"/>
      <path class="cls-1" d="M180.21,99.95v-4.52h-15.92c-.63,0-1.16.22-1.6.66-.44.44-.66.97-.66,1.6v23.26h4.52v-10.49h13.65v-4.53h-13.65v-5.97h13.65ZM194.92,106.39c-1.38,0-2.55.49-3.54,1.48-.98.98-1.48,2.16-1.48,3.54v.14l7.91-4.25c-.87-.61-1.84-.9-2.9-.9h0ZM194.92,120.95c-2.62,0-4.87-.94-6.74-2.81-1.86-1.86-2.79-4.11-2.79-6.74s.93-4.88,2.79-6.74c1.88-1.86,4.12-2.79,6.74-2.79,1.77,0,3.4.46,4.9,1.35,1.51.9,2.68,2.13,3.5,3.68.3.55.36,1.12.18,1.73-.18.59-.55,1.04-1.1,1.33l-10.35,5.55c.85.61,1.81.91,2.86.91s2.09-.33,2.99-.98c.89-.67,1.49-1.51,1.82-2.54l4.31,1.32c-.61,2.02-1.76,3.64-3.43,4.87-1.68,1.24-3.58,1.87-5.69,1.87h0ZM225.31,101.87c-1.84,0-3.44.64-4.8,1.91-1.35-1.27-2.94-1.91-4.78-1.91-.83,0-1.67.16-2.53.48v-.48h-4.52v19.08h4.52v-12.03c0-.7.25-1.29.75-1.78.48-.5,1.08-.75,1.78-.75s1.3.25,1.8.75c.49.49.73,1.07.73,1.78v12.03h4.53v-12.03c0-.7.24-1.29.73-1.78.5-.5,1.1-.75,1.8-.75s1.28.25,1.78.75c.5.49.75,1.07.75,1.78v12.03h4.51v-12.03c0-1.95-.69-3.6-2.06-4.98-1.37-1.37-3.03-2.06-4.98-2.06h0ZM247.07,106.4v-4.52h-5.01v-6.45h-4.52v15.99c0,2.63.93,4.87,2.79,6.74,1.87,1.86,4.11,2.79,6.74,2.79v-4.51c-1.37,0-2.55-.49-3.54-1.46-.98-.99-1.47-2.17-1.47-3.56v-5.02h5.01ZM261.07,106.39c-1.38,0-2.56.49-3.54,1.48-.98.98-1.48,2.17-1.48,3.56s.49,2.55,1.48,3.54c.99.98,2.17,1.48,3.54,1.48s2.57-.49,3.55-1.48c.99-.98,1.48-2.17,1.48-3.54s-.49-2.57-1.48-3.56c-.98-.98-2.17-1.48-3.55-1.48h0ZM261.07,120.95c-2.62,0-4.87-.93-6.74-2.79-1.86-1.88-2.79-4.12-2.79-6.74s.93-4.89,2.79-6.76c1.87-1.86,4.12-2.79,6.74-2.79s4.88.93,6.75,2.79c1.86,1.87,2.79,4.13,2.79,6.76s-.93,4.86-2.79,6.74c-1.88,1.86-4.13,2.79-6.75,2.79h0ZM301.56,120.95h-4.52v-16.39l-6.54,8.87c-.42.58-1.03.87-1.81.87s-1.4-.29-1.83-.87l-6.54-8.87v16.39h-4.52v-23.27c0-.48.15-.92.43-1.32.29-.4.66-.68,1.12-.84.46-.15.93-.15,1.41,0,.46.16.83.43,1.12.82l8.82,11.95,8.81-11.95c.28-.39.66-.66,1.13-.82.46-.15.92-.15,1.39,0,.46.16.83.44,1.12.84.28.39.42.83.42,1.32v23.27h0ZM316.29,106.39c-1.38,0-2.55.49-3.54,1.48-.98.98-1.48,2.16-1.48,3.54s.49,2.57,1.48,3.56c.99.97,2.17,1.46,3.54,1.46s2.57-.49,3.55-1.46c.98-.98,1.46-2.17,1.46-3.56s-.49-2.55-1.46-3.54c-.98-.98-2.17-1.48-3.55-1.48h0ZM325.83,120.95h-4.53v-1.44c-1.53.96-3.2,1.44-5.01,1.44-2.62,0-4.87-.94-6.74-2.81-1.86-1.86-2.79-4.11-2.79-6.74s.93-4.88,2.79-6.74c1.88-1.86,4.12-2.79,6.74-2.79s4.87.93,6.74,2.79c1.87,1.86,2.81,4.11,2.81,6.74v9.55h0ZM335.54,120.95h-4.52v-9.53c0-2.63.93-4.88,2.79-6.74,1.86-1.86,4.11-2.79,6.74-2.79,1.61,0,3.13.38,4.53,1.14l-2.15,3.96c-.74-.39-1.53-.59-2.39-.59-1.37,0-2.55.5-3.54,1.48-.98.97-1.47,2.15-1.47,3.54v9.53h0ZM358.11,120.95c-2.62,0-4.87-.93-6.74-2.79-1.86-1.88-2.79-4.12-2.79-6.74s.93-4.88,2.79-6.74c1.88-1.87,4.12-2.81,6.74-2.81,3.17,0,5.72,1.29,7.64,3.86l-3.62,2.7c-1.02-1.35-2.36-2.03-4.02-2.03-1.38,0-2.55.49-3.54,1.46-.98.98-1.48,2.17-1.48,3.56s.49,2.55,1.48,3.54c.99.98,2.17,1.48,3.54,1.48,1.66,0,3-.68,4.02-2.05l3.62,2.7c-1.92,2.57-4.47,3.86-7.64,3.86h0ZM379.22,101.87c-1.47,0-2.91.39-4.3,1.18v-7.61h-4.52v25.51h4.52v-10.26c0-1.19.42-2.2,1.26-3.04.84-.83,1.86-1.25,3.04-1.25s2.2.42,3.04,1.25c.84.84,1.26,1.85,1.26,3.04v10.26h4.51v-10.26c0-2.43-.87-4.51-2.6-6.23-1.72-1.73-3.79-2.6-6.22-2.6Z"/>
    </g>
  </g>
</svg>